<?xml version="1.0" standalone="no"?>
<!DOCTYPE svg PUBLIC "-//W3C//DTD SVG 1.1//EN" "http://www.w3.org/Graphics/SVG/1.1/DTD/svg11.dtd" >
<svg xmlns="http://www.w3.org/2000/svg">
<metadata></metadata>
<defs>
<font id="sansumi-ultralightregular" horiz-adv-x="1024" >
<font-face units-per-em="2048" ascent="1638" descent="-410" />
<missing-glyph horiz-adv-x="544" />
<glyph horiz-adv-x="2048" />
<glyph horiz-adv-x="2048" />
<glyph horiz-adv-x="682" />
<glyph d="M264 1403q14 -23 34.5 -46.5t51.5 -44t71 -33.5t91 -13t91 13t71 33.5t51.5 44t34.5 46.5h-41q-33 -37 -80 -68.5t-127 -31.5t-127 31.5t-80 68.5h-41z" />
<glyph d="M494 1253h36v158h-36v-158z" />
<glyph d="M354 1317q0 -61 49.5 -94t106.5 -33h2q59 0 108.5 33t49.5 94t-49.5 94t-108.5 33t-108.5 -33t-49.5 -94zM391 1317q0 43 35 67.5t84 24.5t84 -24.5t35 -67.5q0 -35 -29 -63.5t-88 -28.5h-2q-61 0 -90 28.5t-29 63.5z" />
<glyph unicode="&#xa;" d="M319 1149h25l229 289h-67zM637 1149h25l229 289h-68z" />
<glyph d="M373 -168q0 -55 45 -86t106 -31q57 0 103 22.5t75 51.5l-24 18q-29 -25 -67 -40t-76 -15q-70 0 -95.5 27.5t-25.5 56.5t15 55.5t52 59.5l58 49h-47l-37 -29q-51 -39 -66.5 -73.5t-15.5 -65.5z" />
<glyph d="M225 1389l285 -189h4l285 189h-37l-248 -136h-4l-248 136h-37z" />
<glyph unicode="&#xd;" horiz-adv-x="573" d="M266 0h41v1090h-41v-1090z" />
<glyph horiz-adv-x="606" d="M-332 -25h47l1246 1469h-46z" />
<glyph horiz-adv-x="1779" d="M90 1053h268v-1565h41v1565h664v37h-664v40q0 49 10.5 105.5t29 110t45 96.5t59.5 61q61 37 138 51.5t163 14.5q152 0 264 -41q100 -37 149 -88l23 35q-39 31 -79 51t-81 37q-61 23 -129.5 32t-146.5 9q-205 0 -328 -74q-39 -23 -68.5 -70t-49 -103.5t-30 -115.5 t-10.5 -108v-43h-268v-37zM1473 0h40v1090h-40v-1090zM1473 1325h40v164h-40v-164z" />
<glyph horiz-adv-x="1779" d="M90 1053h268v-1565h41v1565h664v37h-664v40q0 49 10.5 108.5t29 117t45 103.5t59.5 65q61 37 138 51t163 14q152 0 264 -41q100 -37 149 -88l23 35q-39 31 -79 51.5t-81 36.5q-61 23 -129.5 32t-146.5 9q-205 0 -328 -74q-39 -23 -68.5 -73t-49 -110t-30 -122.5 t-10.5 -111.5v-43h-268v-37zM1473 0h40v1489h-40v-1489z" />
<glyph horiz-adv-x="1411" d="M129 612l178 56v-668h1012v39h-967v641l428 131v37l-428 -131v735h-45v-747l-178 -56v-37z" />
<glyph horiz-adv-x="573" d="M123 635l143 113v-748h41v780l150 117v41l-150 -117v668h-41v-701l-143 -112v-41z" />
<glyph horiz-adv-x="1423" d="M176 0h1096v39h-1045l1008 1374v39h-989v-39h940l-1010 -1374v-39zM406 1683l305 -137h4l305 137h-37l-268 -90h-4l-269 90h-36z" />
<glyph horiz-adv-x="1236" d="M129 0h1034v37h-985l952 1012v41h-958v-37h911l-954 -1012v-41zM332 1389l284 -189h5l284 189h-37l-247 -136h-5l-247 136h-37z" />
<glyph unicode=" "  horiz-adv-x="544" />
<glyph unicode="&#x09;" horiz-adv-x="544" />
<glyph unicode="&#xa0;" horiz-adv-x="544" />
<glyph unicode="!" horiz-adv-x="655" d="M307 0h41v164h-41v-164zM307 1452l6 -1133h29l6 1133h-41z" />
<glyph unicode="&#x22;" horiz-adv-x="722" d="M211 1452l12 -334h25l12 334h-49zM463 1452l12 -334h25l12 334h-49z" />
<glyph unicode="#" horiz-adv-x="1474" d="M94 528h355l-216 -528h39l215 528h340l-215 -528h39l215 528h357l12 33h-356l133 324h356l12 33h-354l203 499h-39l-203 -499h-340l203 499h-39l-203 -499h-356l-12 -33h354l-133 -324h-355zM500 561l133 324h340l-133 -324h-340z" />
<glyph unicode="$" horiz-adv-x="1744" d="M279 223q47 -57 112.5 -95t140 -61.5t155.5 -32.5t157 -9v-168h37v168q125 2 230.5 32.5t181 81.5t117.5 120t42 149q0 104 -60.5 169.5t-148.5 104.5t-187.5 60.5t-174.5 37.5v568q104 0 181 -15.5t132 -40t90 -56.5t57 -67l35 21q-27 41 -63.5 75.5t-93 59.5t-139.5 40 t-199 17v150h-37v-150q-164 0 -266.5 -30.5t-162 -74.5t-81 -96.5t-21.5 -97.5q0 -102 55.5 -158.5t137.5 -88t173 -48t165 -36.5v-693q-82 0 -160 10.5t-146.5 34t-127 59.5t-101.5 89zM354 1075q0 45 19.5 93.5t73 86t148.5 63t249 30.5v-560q-66 18 -151 33t-159.5 43.5 t-127 76.5t-52.5 134zM881 59v684q76 -18 168 -37.5t173 -54.5t135 -94.5t54 -157.5q0 -68 -39 -129t-109.5 -107t-168 -74t-213.5 -30z" />
<glyph unicode="%" horiz-adv-x="2080" d="M176 1104q0 -80 26.5 -147.5t75 -116.5t115 -77t148.5 -28t148.5 28t114.5 77t74.5 116.5t26.5 145.5v2q0 80 -26.5 147.5t-74.5 116.5t-114.5 77t-148.5 28t-148.5 -28t-115 -77t-75 -116.5t-26.5 -147.5zM217 1102q0 74 23.5 135t65.5 105t101.5 69t133.5 25t133 -25 t101 -69t65.5 -105t23.5 -135t-23.5 -135.5t-65.5 -105.5t-101.5 -68.5t-130.5 -24.5h-2q-74 0 -133.5 24.5t-101.5 68.5t-65.5 105.5t-23.5 135.5zM457 -23h47l1120 1489h-45zM1178 342q0 -80 26.5 -147.5t74.5 -116.5t114.5 -77t148.5 -28t148.5 28t114.5 77t75 116.5 t27 145.5v2q0 80 -27 147.5t-75 116.5t-114.5 77t-148.5 28t-148.5 -28t-114.5 -77t-74.5 -116.5t-26.5 -147.5zM1219 340q0 74 23.5 135.5t65.5 105.5t101 68.5t133 24.5t133.5 -24.5t101.5 -68.5t65.5 -105.5t23.5 -135.5t-23.5 -135.5t-65.5 -105.5t-101.5 -68.5 t-131.5 -24.5h-2q-74 0 -133 24.5t-101 68.5t-65.5 105.5t-23.5 135.5z" />
<glyph unicode="&#x26;" horiz-adv-x="1914" d="M236 334q0 -182 142 -272.5t394 -90.5q115 0 210 18.5t172 48.5t134.5 66.5t95.5 71.5h9q96 -61 167.5 -101t135.5 -75h84q-78 39 -163 85t-196 118q98 98 172 229t93 285h-37q-20 -152 -92 -278t-166 -218q-186 129 -344 261t-299 274q90 37 166.5 75.5t132 82.5 t87 97.5t31.5 118.5q0 63 -27.5 110.5t-75.5 78.5t-112.5 46t-136.5 15q-68 0 -128 -16t-105 -48t-72 -79t-27 -111q0 -53 18.5 -102t47 -95t64.5 -88t73 -77q-90 -31 -171 -72t-142.5 -93t-98 -117.5t-36.5 -147.5zM276 330v2q0 129 104.5 227t328.5 180 q150 -152 319.5 -293.5t331.5 -250.5q-127 -109 -276.5 -150t-305.5 -41q-29 0 -77 2t-103 12.5t-112.5 31t-103.5 56t-76 91t-30 133.5zM522 1126v2q0 96 78 157t223 61q61 0 116.5 -13.5t96.5 -40t65.5 -66.5t24.5 -91q0 -61 -31.5 -111.5t-87 -93.5t-129 -80t-157.5 -72 q-84 88 -141.5 170t-57.5 178z" />
<glyph unicode="'" horiz-adv-x="471" d="M211 1452l12 -334h25l12 334h-49z" />
<glyph unicode="(" horiz-adv-x="1015" d="M369 598q0 -172 32.5 -334t110.5 -309q57 -111 123.5 -186.5t157.5 -145.5l22 21q-82 66 -150.5 147.5t-121.5 188.5q-43 84 -70 170t-40 166.5t-18 153.5t-5 128q0 57 5 129t18 151.5t39 163.5t67 166q55 113 124.5 196t151.5 148l-22 21q-45 -35 -83 -69t-72 -73.5 t-65.5 -87t-62.5 -106.5q-74 -141 -107.5 -303t-33.5 -336z" />
<glyph unicode=")" horiz-adv-x="1015" d="M201 -356l22 -21q90 70 156.5 145.5t124.5 186.5q78 147 110.5 309t32.5 334q0 174 -33.5 336t-107.5 303q-31 59 -62.5 106.5t-65.5 87t-72 73.5t-83 69l-22 -21q82 -66 151.5 -148.5t124.5 -195.5q41 -82 66.5 -166t39 -163.5t18.5 -151.5t5 -129q0 -55 -5 -128 t-18.5 -153.5t-40 -167t-69.5 -169.5q-53 -106 -121.5 -188.5t-150.5 -147.5z" />
<glyph unicode="*" horiz-adv-x="1396" d="M328 877l20 -37l338 204l2 -2l-10 -393h41l-10 393l2 2l338 -204l20 37l-350 186v2l348 188l-20 37l-336 -209l-2 2l10 398h-41l10 -398l-2 -2l-336 209l-20 -37l348 -188v-2z" />
<glyph unicode="+" horiz-adv-x="1638" d="M295 502h506v-412h37v412h505v33h-505v378h-37v-378h-506v-33z" />
<glyph unicode="," horiz-adv-x="532" d="M195 -164h24l88 328h-49z" />
<glyph unicode="-" horiz-adv-x="817" d="M31 651h579v37h-579v-37z" />
<glyph unicode="." horiz-adv-x="532" d="M98 0h41v164h-41v-164z" />
<glyph unicode="/" horiz-adv-x="1482" d="M190 -25h46l1069 1538h-43z" />
<glyph unicode="0" horiz-adv-x="1744" d="M154 711q0 -172 54 -308.5t150.5 -231.5t228.5 -145.5t285 -50.5q154 0 286 50.5t228.5 145.5t150.5 231.5t54 308.5q0 170 -54 306t-150.5 231t-228.5 145.5t-286 50.5t-285.5 -50.5t-228 -145.5t-150.5 -230t-54 -305v-2zM195 711q0 172 54 303t146 219t215 133t260 45 h2q137 0 261 -45t216.5 -133t146.5 -219t54 -303t-54 -302t-146.5 -218.5t-216 -133.5t-261.5 -45q-139 0 -262 45t-215 133.5t-146 218.5t-54 302z" />
<glyph unicode="1" horiz-adv-x="1447" d="M256 1208l16 -34l512 204v-1378h41v1430h-12z" />
<glyph unicode="2" horiz-adv-x="1744" d="M248 18l18 -18h1207v41h-1180q37 121 107.5 209t158.5 154.5t188.5 117.5t200 95.5t190.5 88.5t160.5 97t111.5 121.5t42 162.5q0 61 -28.5 124t-98.5 115t-187.5 85t-297.5 33q-238 0 -374 -80t-183 -223l47 -6q43 133 169 203.5t337 70.5q178 0 289.5 -31.5t175 -80 t87 -104.5t23.5 -106q0 -88 -43 -151.5t-114.5 -114.5t-165 -95t-194.5 -91t-202.5 -100.5t-189.5 -126t-154.5 -167t-99.5 -223.5z" />
<glyph unicode="3" horiz-adv-x="1744" d="M262 305q27 -72 74 -131t121.5 -104t179 -70t246.5 -25q143 0 251.5 30t181.5 84t108.5 127t35.5 159q0 162 -130 264t-412 117v2q131 6 219 38.5t142 81t77.5 104.5t23.5 112q0 72 -29.5 135t-92 111.5t-158.5 76t-230 27.5q-139 0 -236 -29t-159.5 -74t-95.5 -98 t-43 -102l41 -8q10 43 38.5 92t86 90t146.5 67.5t222 26.5q129 0 218.5 -26.5t145.5 -70.5t80.5 -100.5t24.5 -115.5q0 -47 -19.5 -99.5t-77.5 -99.5t-165.5 -81t-283.5 -40v-41q190 -6 312 -37.5t191.5 -80t96 -111t26.5 -131.5q0 -80 -32.5 -146.5t-100 -114.5t-168 -76 t-235.5 -28q-139 0 -237.5 24.5t-166 65.5t-109.5 97.5t-67 119.5z" />
<glyph unicode="4" horiz-adv-x="1744" d="M231 410h883v-410h41v410h330v36h-330v984h-33l-891 -992v-28zM291 446l477 535q86 96 170 191.5t170 193.5h8q-2 -111 -2 -219v-219v-482h-823z" />
<glyph unicode="5" horiz-adv-x="1744" d="M246 297q27 -61 74 -118.5t119.5 -102.5t172 -73t232.5 -28q156 0 274.5 40t196.5 105.5t118 147.5t40 168q0 100 -44.5 186.5t-124 147.5t-193.5 96t-255 35q-145 0 -257 -40t-177 -89h-4l125 604h823v41h-856l-143 -702l24 -10q59 61 176 111t287 50q131 0 238.5 -31.5 t182.5 -89t116 -137.5t41 -174q0 -98 -47.5 -177t-128 -134t-188 -84t-226.5 -29q-125 0 -216 25.5t-158 67.5t-110 96.5t-71 111.5z" />
<glyph unicode="6" horiz-adv-x="1744" d="M223 598q0 -100 29 -209.5t104.5 -202t208.5 -152t342 -59.5q188 0 312 49.5t197 122t101.5 153.5t28.5 144q0 102 -46 186.5t-132 145t-209 93t-276 32.5q-143 0 -252 -29.5t-184.5 -76.5t-120.5 -107.5t-60 -122.5h-2q-2 201 35 358.5t117 265t206 164t302 56.5 q211 0 334.5 -76t179.5 -198l39 14q-59 129 -192.5 212t-360.5 83q-190 0 -323.5 -62.5t-217.5 -174t-122 -267.5t-38 -342zM281 473v2q0 57 32.5 126t105.5 128t189.5 98t284.5 39q139 0 253 -28.5t193.5 -84t122.5 -134.5t43 -177q0 -70 -29.5 -145.5t-99 -139 t-184.5 -105.5t-285 -42q-139 0 -240.5 29t-171 74t-111.5 99t-65.5 106.5t-30.5 93.5t-7 61z" />
<glyph unicode="7" horiz-adv-x="1744" d="M307 1378h1057v-4l-700 -1374h47l704 1393v24h-1108v-39z" />
<glyph unicode="8" horiz-adv-x="1744" d="M223 369q0 -92 47 -165t133 -123t206 -77t263 -27q152 0 273 28t205 79t128 124t44 161q0 86 -41 156.5t-111 120.5t-159 80t-183 36v2q90 6 170 28.5t140.5 62.5t95 97.5t34.5 134.5q0 74 -38.5 139.5t-114.5 114t-187.5 76t-255.5 27.5q-143 0 -254.5 -27.5t-187.5 -76 t-115 -114t-39 -139.5t36 -132t96.5 -99t140.5 -64.5t168 -27.5v-2q-94 -4 -183.5 -34t-158 -81t-110.5 -121.5t-42 -156.5zM264 365v2q0 72 37 139t112.5 120.5t190.5 85t268 31.5q154 0 268.5 -31.5t190.5 -85t113 -120.5t37 -139q0 -84 -44 -149.5t-124 -112t-192.5 -71 t-248.5 -24.5q-135 0 -247.5 24.5t-192.5 70t-124 111t-44 149.5zM317 1085v2q0 66 36 124.5t106.5 102.5t174 69.5t238.5 25.5t238.5 -25.5t174.5 -69.5t106.5 -102.5t35.5 -124.5t-34.5 -122t-104 -97t-174 -64.5t-242.5 -23.5q-137 0 -241.5 23.5t-174 64.5t-104.5 96.5 t-35 120.5z" />
<glyph unicode="9" horiz-adv-x="1744" d="M223 989q0 -84 34 -168t110.5 -151.5t203.5 -109.5t316 -42q143 0 251.5 30t184.5 77t120 107.5t60 121.5h2q2 -184 -29.5 -340t-109.5 -267.5t-205 -174t-315 -62.5q-109 0 -193 22.5t-148.5 62.5t-111.5 92.5t-80 111.5l-39 -14q37 -63 87.5 -119.5t120 -98.5 t158.5 -67t206 -25q197 0 330 64.5t216 178.5t118.5 268.5t35.5 334.5q0 39 -6 100.5t-29.5 131t-67.5 139.5t-121 126t-190.5 91t-275.5 35q-182 0 -304 -45t-194.5 -113.5t-103.5 -148.5t-31 -148zM264 987q0 63 26.5 137t94.5 137.5t183.5 105.5t293.5 42 q139 0 240.5 -28.5t171 -73.5t111.5 -99.5t66 -106.5t31 -94t7 -61v-2q0 -68 -37 -137.5t-111.5 -125.5t-190.5 -92t-273 -36q-145 0 -260 31.5t-193 89t-119 137.5t-41 176z" />
<glyph unicode=":" horiz-adv-x="532" d="M246 0h41v164h-41v-164zM246 834h41v163h-41v-163z" />
<glyph unicode=";" horiz-adv-x="532" d="M195 -164h24l88 328h-49zM246 834h41v163h-41v-163z" />
<glyph unicode="&#x3c;" horiz-adv-x="1638" d="M295 502l967 -434v36l-930 412v4l930 412v37l-967 -434v-33z" />
<glyph unicode="=" horiz-adv-x="1638" d="M295 371h1048v32h-1048v-32zM295 633h1048v33h-1048v-33z" />
<glyph unicode="&#x3e;" horiz-adv-x="1638" d="M377 68l966 434v33l-966 434v-37l930 -412v-4l-930 -412v-36z" />
<glyph unicode="?" horiz-adv-x="1198" d="M14 1184l37 -17q27 57 71 105.5t111.5 83.5t159.5 54.5t215 19.5q100 0 192.5 -14.5t164 -48.5t114.5 -90t43 -142q0 -57 -14 -102.5t-45 -83.5t-81 -71.5t-122 -68.5q-106 -51 -174 -99t-105.5 -103.5t-50 -124t-8.5 -163.5h31q-2 80 8 142.5t44 115t95.5 98.5t163.5 95 q84 39 141.5 78t92.5 81t50 91t15 110q0 94 -43 159t-117.5 104t-174 55t-212.5 16q-139 0 -240.5 -21.5t-172 -60.5t-116.5 -90t-73 -108zM522 0h41v164h-41v-164z" />
<glyph unicode="@" horiz-adv-x="2039" d="M176 467q0 -147 57.5 -272t162 -216.5t250 -143.5t319.5 -52q141 0 281 23.5t257 101.5l-24 24q-109 -66 -225.5 -90t-262.5 -24q-170 0 -311 48t-244.5 134t-161 205t-57.5 262q0 205 81 352.5t216 247.5q133 98 292 144t339 46q195 0 321.5 -48t208.5 -113 q96 -78 132 -174.5t36 -180.5q0 -68 -14 -137t-39 -132.5t-59.5 -119t-75.5 -92.5q-20 -18 -42 -22.5t-44 -4.5q-20 0 -41 1.5t-37 -5.5v547l-41 -10v-53q-231 -18 -405.5 -47t-290 -77t-174 -122t-58.5 -184q0 -53 21.5 -106.5t75 -96.5t143.5 -70.5t229 -27.5 q43 0 102.5 8t123 29.5t125 58.5t108.5 92h2l39 23q18 6 41 6t47.5 1t49 6t46.5 23q47 41 85 102.5t65.5 132.5t43 143.5t15.5 133.5q0 106 -47 206t-141 176.5t-232.5 122.5t-322.5 46q-205 0 -381 -57t-306 -164.5t-204 -260.5t-74 -343zM563 285q0 100 57.5 167.5 t169 111.5t277.5 69.5t383 44.5v-463l-9 -3l-3 -1l2 -6q-51 -61 -113.5 -98t-124 -57.5t-117 -27t-90.5 -6.5q-131 0 -215 26t-132 64.5t-66.5 86t-18.5 92.5zM805 1096l4 -33l85 10t230 10q76 0 130.5 -23.5t90 -58t57 -76.5t32 -77t13.5 -60l3 -24l41 10q0 2 -6 36 t-27.5 86t-61.5 101.5t-106.5 85t-163.5 35.5q-55 0 -112.5 -3t-103.5 -8t-76 -8z" />
<glyph unicode="A" horiz-adv-x="1415" d="M51 0h47l226 506h763l228 -506h49l-643 1452h-29zM342 545l184 428q45 102 88 204.5t88 213.5h7q47 -115 92 -218.5t90 -207.5l180 -420h-729z" />
<glyph unicode="B" horiz-adv-x="1640" d="M307 0h393q131 0 271.5 12.5t254 53t187.5 119.5t74 212q0 172 -148.5 265.5t-406.5 103.5v4q127 8 215 37t142 74t79 102t25 125q0 74 -35 136.5t-116 108.5t-212 72.5t-321 26.5h-402v-1452zM352 39v709h381q362 0 535.5 -92.5t173.5 -258.5q0 -121 -68.5 -191.5 t-176 -107.5t-240 -48t-257.5 -11h-348zM352 786v627h350q178 0 301 -22.5t200 -62.5t111 -95t34 -121q0 -61 -22.5 -119.5t-92.5 -104.5t-196 -74t-332 -28h-353z" />
<glyph unicode="C" horiz-adv-x="1728" d="M164 727q0 -174 61.5 -315.5t173.5 -245.5q88 -82 230.5 -138.5t322.5 -56.5q121 0 219.5 33t175 82t134 108.5t98.5 114.5l-35 25q-33 -45 -85 -101.5t-125.5 -106.5t-169 -84t-212.5 -34q-141 0 -275 43t-237.5 132t-167 224.5t-63.5 317.5q0 193 66.5 330t174 223 t242.5 126t271 40q100 0 182 -23.5t147.5 -63.5t115.5 -92.5t87 -109.5l37 23q-39 61 -94.5 116.5t-126 96.5t-157.5 65.5t-191 24.5q-176 0 -321.5 -53.5t-252 -151.5t-166 -236.5t-59.5 -312.5z" />
<glyph unicode="D" horiz-adv-x="1763" d="M307 0h463q211 0 367.5 51t259 146.5t152.5 229.5t50 298q0 166 -50 300t-152.5 229.5t-259 146.5t-367.5 51h-463v-1452zM352 39v1374h422q203 0 350.5 -50t242.5 -140t141 -217t46 -281t-46 -280t-141 -216t-242.5 -140t-350.5 -50h-422z" />
<glyph unicode="E" horiz-adv-x="1472" d="M307 0h981v39h-936v700h738v39h-738v635h908v39h-953v-1452z" />
<glyph unicode="F" horiz-adv-x="1433" d="M307 0h45v739h738v39h-738v635h908v39h-953v-1452z" />
<glyph unicode="G" horiz-adv-x="1712" d="M164 725q0 -180 63.5 -320.5t171 -236.5t247.5 -146.5t296 -50.5q160 0 295 38t270 128v498h-637v-39h592v-440q-111 -74 -245 -111t-261 -37q-154 0 -290 47t-237 138.5t-160.5 225.5t-59.5 306q0 135 33.5 240.5t90 185.5t131.5 136t156.5 91t166.5 50.5t163 15.5 q94 0 170 -17.5t138.5 -50.5t114.5 -82t102 -112l34 22q-49 63 -103 114.5t-120.5 87.5t-150.5 55.5t-193 19.5q-84 0 -174 -17.5t-177 -56.5t-164 -98.5t-135.5 -143.5t-93 -193.5t-34.5 -246.5z" />
<glyph unicode="H" horiz-adv-x="1873" d="M307 0h45v743h1170v-743h45v1452h-45v-670h-1170v670h-45v-1452z" />
<glyph unicode="I" horiz-adv-x="700" d="M328 0h45v1452h-45v-1452z" />
<glyph unicode="J" horiz-adv-x="1288" d="M14 162q43 -41 88 -76t98.5 -60.5t117 -40t143.5 -14.5q250 0 390 171t140 515v795h-45v-793q0 -328 -126 -488.5t-357 -160.5q-141 0 -239.5 52.5t-180.5 130.5z" />
<glyph unicode="K" horiz-adv-x="1523" d="M307 0h45v532l305 293l727 -825h60l-758 852l629 600h-62l-456 -438q-111 -106 -220.5 -212t-222.5 -214h-2v430v434h-45v-1452z" />
<glyph unicode="L" horiz-adv-x="1411" d="M307 0h1012v39h-967v1413h-45v-1452z" />
<glyph unicode="M" horiz-adv-x="2611" d="M307 0h45v872q0 348 -4 531h6q119 -180 350.5 -529.5t579.5 -873.5h45q350 526 581.5 873.5t350.5 529.5h6q-4 -180 -4 -529v-874h45v1452h-61q-350 -524 -583.5 -874.5t-352.5 -530.5h-6q-117 180 -351.5 530.5t-582.5 874.5h-64v-1452z" />
<glyph unicode="N" horiz-adv-x="1851" d="M307 0h45q0 522 -1 871.5t-3 531.5h6q143 -182 427 -531.5t708 -871.5h55v1452h-45v-874t4 -529h-6q-143 180 -426 528.5t-709 874.5h-55v-1452z" />
<glyph unicode="O" horiz-adv-x="1925" d="M164 725q0 -190 66.5 -331.5t177 -236t255 -140.5t300.5 -46t300 46t254.5 140.5t177 236t66.5 331.5t-66.5 332.5t-177 237t-255 140.5t-299.5 46q-156 0 -300.5 -46t-255 -140.5t-177 -235.5t-66.5 -332v-2zM209 727q0 184 62.5 319.5t167 224.5t240.5 132t282 43h2 q147 0 283 -43t240.5 -132t167 -224.5t62.5 -319.5q0 -182 -62.5 -317.5t-167 -224.5t-240.5 -132t-283 -43t-283.5 43t-241 132t-167 224.5t-62.5 317.5z" />
<glyph unicode="P" horiz-adv-x="1660" d="M307 0h45v598h387q217 0 369 30.5t247 87t138 136.5t43 178q0 94 -41 172t-131 133.5t-233.5 86t-350.5 30.5h-473v-1452zM352 637v776h445q195 0 327.5 -29.5t213.5 -82t117 -122t36 -149.5q0 -88 -38 -159.5t-127 -124t-233.5 -81t-357.5 -28.5h-383z" />
<glyph unicode="Q" horiz-adv-x="1925" d="M164 725q0 -190 66.5 -331.5t177 -236t255 -140.5t300.5 -46q37 0 73.5 3t71.5 8q29 -33 72 -73t102 -81q45 -31 105.5 -46t116.5 -20q42 -5 78 -5q13 0 26 1q47 2 65 9l-20 34q-18 -4 -61 -5h-13q-38 0 -83 5q-52 6 -105.5 19.5t-92.5 40.5q-35 23 -69.5 53.5 t-75.5 75.5q125 25 236.5 82t193.5 149t130 218t48 286q0 190 -66.5 332.5t-177 237t-255 140.5t-299.5 46q-156 0 -300.5 -46t-255 -140.5t-177 -235.5t-66.5 -332v-2zM209 727q0 184 62.5 319.5t167 224.5t240.5 132t282 43h2q147 0 283 -43t240.5 -132t167 -224.5 t62.5 -319.5q0 -158 -47 -279.5t-128 -209.5t-188.5 -141.5t-230.5 -73.5l-78 90q-29 33 -82 81t-120 80q-61 31 -135 38q-47 4 -92 4q-26 0 -51 -1q-68 -4 -126.5 -14t-89.5 -18q-66 86 -102.5 195.5t-36.5 248.5zM375 248q33 8 87 18t116 14q19 1 39 1q43 0 87 -5 q64 -8 119 -34q63 -29 102.5 -63t86.5 -85l65 -78q-55 -6 -114 -6q-172 0 -326 58.5t-262 179.5z" />
<glyph unicode="R" horiz-adv-x="1656" d="M307 0h45v631h549l649 -631h60l-658 633q119 4 221.5 36.5t178 88t117.5 130.5t42 165t-38.5 163.5t-124.5 126t-222.5 81t-330.5 28.5h-488v-1452zM352 670v743h426q211 0 345 -29.5t211 -80t104.5 -115.5t27.5 -135q0 -76 -35.5 -144.5t-106.5 -122t-173 -85 t-236 -31.5h-563z" />
<glyph unicode="S" horiz-adv-x="1617" d="M154 193q41 -49 99 -89.5t137 -70t179.5 -46t227.5 -16.5q152 0 274.5 35t210.5 94q86 57 131 133t45 162q0 98 -47 164t-106 105q-37 25 -78 42t-94.5 33.5t-125 32.5t-165.5 37q-109 25 -184.5 41t-129 30.5t-89.5 27t-66 28.5q-59 29 -97 83t-38 126q0 74 35.5 127 t105.5 92q74 41 187.5 60.5t240.5 19.5q113 0 201 -14.5t152.5 -41t107.5 -62.5t67 -81l39 21q-29 49 -74 88t-112.5 67.5t-161.5 44t-219 15.5q-141 0 -254 -20.5t-197 -63.5q-88 -47 -125.5 -113.5t-37.5 -132.5q0 -96 44 -155.5t99 -88.5q25 -14 54.5 -26.5t77.5 -25.5 t123 -31.5t193 -45.5q113 -25 191 -44t131 -34.5t89 -29t65 -29.5q27 -14 54 -35.5t48.5 -52.5t36 -71t14.5 -91q0 -78 -42 -144.5t-111 -113.5q-86 -55 -200 -90t-261 -35q-233 0 -386 60.5t-225 152.5z" />
<glyph unicode="T" horiz-adv-x="1404" d="M82 1413h598v-1413h45v1413h598v39h-1241v-39z" />
<glyph unicode="U" horiz-adv-x="1705" d="M287 588q0 -178 32.5 -297t101 -189.5t175 -100.5t254.5 -30q152 0 259.5 30t177 100.5t101 189.5t31.5 297v864h-45v-860q0 -158 -23.5 -268.5t-83 -180t-160.5 -102.5t-257 -33q-152 0 -251 33t-158.5 102.5t-84 180t-24.5 268.5v860h-45v-864z" />
<glyph unicode="V" horiz-adv-x="1542" d="M82 1452l674 -1452h41l673 1452h-45l-327 -707q-82 -176 -160 -346t-160 -354h-4q-80 180 -158.5 352t-160.5 348l-328 707h-45z" />
<glyph unicode="W" horiz-adv-x="2478" d="M82 1452l571 -1452h41l275 700q70 176 137.5 350.5t134.5 354.5h4q70 -180 137.5 -355.5t137.5 -351.5l274 -698h41l571 1452h-45l-274 -698q-68 -174 -134.5 -348.5t-135.5 -364.5h-5q-68 186 -136 362.5t-136 350.5l-274 698h-43l-275 -700q-68 -174 -135.5 -348.5 t-136.5 -362.5h-4q-68 186 -135.5 361.5t-135.5 349.5l-274 700h-45z" />
<glyph unicode="X" horiz-adv-x="1650" d="M152 0h53l618 725h4l619 -725h53l-649 756l598 696h-55l-566 -666h-4l-565 666h-55l598 -696z" />
<glyph unicode="Y" horiz-adv-x="1433" d="M72 1452l622 -827v-625h45v625l623 827h-51l-295 -393q-74 -98 -147.5 -196.5t-149.5 -198.5h-4q-74 98 -148.5 195t-148.5 198l-295 395h-51z" />
<glyph unicode="Z" horiz-adv-x="1423" d="M176 0h1096v39h-1045l1008 1374v39h-989v-39h940l-1010 -1374v-39z" />
<glyph unicode="[" horiz-adv-x="980" d="M416 -319h315v34h-274v1764h274v34h-315v-1832z" />
<glyph unicode="\" horiz-adv-x="1482" d="M180 1513l1069 -1538h45l-1071 1538h-43z" />
<glyph unicode="]" horiz-adv-x="980" d="M250 -285v-34h315v1832h-315v-34h274v-1764h-274z" />
<glyph unicode="^" horiz-adv-x="1638" d="M371 649h37l411 758h4l412 -758h37l-434 795h-33z" />
<glyph unicode="_" horiz-adv-x="1638" d="M0 -516v-62h1638v62h-1638z" />
<glyph unicode="`" d="M197 1403l325 -232h35l-285 232h-75z" />
<glyph unicode="a" horiz-adv-x="1337" d="M133 276q0 -53 21.5 -106t75 -96t143.5 -71t229 -28q43 0 102.5 8.5t123 30t125 58.5t108.5 92h2q0 -51 11 -88t46 -76h47v4q-23 25 -35 43.5t-19 37.5t-9 45t-2 67v573q0 168 -101.5 256t-345.5 88q-111 0 -175 -11l-64 -11l4 -33q2 0 18.5 5t69.5 10t145 5 q115 0 193 -19.5t126 -59t68.5 -100t20.5 -140.5v-53q-231 -18 -405.5 -47t-290 -77t-174 -122t-58.5 -185zM174 279q0 100 57.5 167.5t169 111.5t277.5 69.5t383 44.5v-463q-51 -66 -115.5 -104.5t-127 -60t-119 -28t-93.5 -6.5q-131 0 -215 25.5t-132 64.5t-66.5 86 t-18.5 93z" />
<glyph unicode="b" horiz-adv-x="1503" d="M246 0h41l-2 170h6q27 -20 64.5 -53t95 -65t135.5 -54.5t182 -22.5q147 0 259 48.5t185.5 128t110.5 182t37 211.5q0 121 -41 225t-118 181t-185.5 120t-243.5 43t-258 -46t-225 -150h-2v571h-41v-1489zM287 219v651q113 117 231.5 163t251.5 46q131 0 232.5 -42 t172 -114.5t107.5 -169.5t37 -208q0 -104 -36 -201.5t-105.5 -171.5t-172 -118t-235.5 -44q-104 0 -184 24.5t-138.5 58.5t-97.5 70t-63 56z" />
<glyph unicode="c" horiz-adv-x="1378" d="M143 545q0 -150 50.5 -257.5t135.5 -177t194.5 -102.5t228.5 -33q106 0 187 21.5t141.5 56.5t102 79t72.5 91l-36 19q-29 -47 -70 -88t-96.5 -74t-130 -51.5t-170.5 -18.5q-106 0 -208 31t-181.5 95.5t-129 165.5t-49.5 243q0 135 49.5 235.5t129 167t182 99t207.5 32.5 q170 0 270 -53t166 -141l35 20q-72 94 -181.5 151.5t-289.5 57.5q-115 0 -224.5 -35t-194.5 -105.5t-137.5 -177t-52.5 -251.5z" />
<glyph unicode="d" horiz-adv-x="1503" d="M143 545q0 -109 37 -211.5t111 -182t185.5 -128t258.5 -48.5q109 0 190 26t138 58.5t94 65.5t55 45h7l-2 -170h40v1489h-40v-571h-3q-102 104 -225 150t-258 46t-243.5 -43t-185.5 -120t-118 -181t-41 -225zM184 545q0 111 37 208t107.5 169.5t172 114.5t232.5 42 q133 0 252 -46t232 -163v-651q-31 -27 -72 -62.5t-99.5 -68.5t-134 -55.5t-176.5 -22.5h-2q-133 0 -235.5 44t-172 118t-105.5 171t-36 202z" />
<glyph unicode="e" horiz-adv-x="1396" d="M143 559q0 -147 44 -251.5t118 -176.5q86 -82 197.5 -119t228.5 -37q80 0 174 16.5t175 35t136 35.5l54 16l-2 31l-52 -15q-51 -16 -130.5 -34.5t-175 -34t-183.5 -15.5q-90 0 -186.5 28t-175 91.5t-130 166.5t-51.5 255h1096q0 123 -42 221t-108 170q-80 86 -182 129 t-217 43q-131 0 -233.5 -39t-180.5 -106q-84 -72 -129 -175.5t-45 -234.5zM184 588q0 100 40 189t112 156.5t172 106.5t223 39q111 0 202 -41t157.5 -109.5t103.5 -157.5t41 -183h-1051z" />
<glyph unicode="f" horiz-adv-x="1206" d="M100 1053h269v-1565h41v1565h663v37h-663v143q0 98 38.5 164.5t104.5 105.5q61 37 138 51.5t163 14.5q152 0 264 -41q100 -37 150 -88l22 35q-39 31 -79 51t-81 37q-61 23 -129.5 32t-146.5 9q-205 0 -328 -74q-158 -94 -157 -295v-145h-269v-37z" />
<glyph unicode="g" horiz-adv-x="1495" d="M143 537q0 -141 51.5 -247t135.5 -175.5t188.5 -104.5t212.5 -35q94 0 169 18.5t133.5 47.5t103.5 62.5t80 66.5h2v-137q0 -139 -30 -228.5t-89 -156.5q-37 -41 -83 -69t-95.5 -45t-100.5 -25.5t-96 -8.5q-86 0 -158.5 14.5t-130.5 39.5q-78 35 -128 73.5t-81 73.5 l-30 -27q51 -53 108 -92t113 -61q70 -29 145.5 -42.5t163.5 -13.5q125 0 229.5 42t171.5 116q72 78 102 176.5t30 233.5v1057h-41l2 -164h-7q-92 94 -202.5 141t-261.5 47q-178 0 -295 -58.5t-185.5 -145.5t-97.5 -187t-29 -186zM184 543v2q0 68 23.5 159t87 175t174.5 142 t285 58q166 0 276.5 -56t188.5 -151v-655q-37 -37 -82 -74t-103.5 -66.5t-131.5 -48t-165 -18.5q-111 0 -211 35t-176 102.5t-121 167t-45 228.5z" />
<glyph unicode="h" horiz-adv-x="1476" d="M260 0h41v846q27 23 63.5 48.5t77.5 51t83 47t79 33.5q143 53 268 53q102 0 166 -25.5t103 -64.5q47 -47 60 -105.5t13 -117.5v-766h41v768q0 86 -21.5 143.5t-64.5 102.5q-47 47 -119.5 73.5t-172.5 26.5q-68 0 -138.5 -13.5t-142.5 -41.5q-74 -29 -145.5 -71 t-145.5 -97h-4v598h-41v-1489z" />
<glyph unicode="i" horiz-adv-x="573" d="M281 0h41v1090h-41v-1090zM281 1325h41v164h-41v-164z" />
<glyph unicode="j" horiz-adv-x="573" d="M-586 -393q47 -35 93.5 -59.5t95.5 -43.5q51 -18 107.5 -28.5t123.5 -10.5q133 0 227.5 35t153.5 101q47 51 69.5 119.5t22.5 187.5v1182h-41v-1184q0 -111 -18.5 -172.5t-59.5 -108.5q-35 -39 -77.5 -63.5t-89 -37.5t-92.5 -18.5t-85 -5.5q-92 0 -145 14.5t-86 26.5 q-53 20 -93 43t-81 56zM266 1325h41v164h-41v-164z" />
<glyph unicode="k" horiz-adv-x="1296" d="M246 0h41v442l229 176l672 -618h57l-696 645l565 445h-61l-383 -302q-94 -74 -188.5 -148.5t-190.5 -150.5h-4v299v701h-41v-1489z" />
<glyph unicode="l" horiz-adv-x="573" d="M285 0h41v1489h-41v-1489z" />
<glyph unicode="m" horiz-adv-x="2140" d="M246 0h41v852q68 59 135 103t133 73t123 40t104 11q127 0 201 -63q41 -35 56.5 -79t15.5 -101v-836h41v854q76 66 144.5 108t130 68.5t115.5 37.5t101 11q82 0 134.5 -21.5t82.5 -56.5q39 -43 49.5 -93t10.5 -99v-809h41v819q0 63 -17.5 115.5t-54.5 91.5 q-39 41 -98.5 64.5t-145.5 23.5q-53 0 -108.5 -11t-116.5 -36t-129 -68t-141 -102h-4q-2 27 -24 73t-62 77q-39 31 -94.5 49t-127.5 18q-49 0 -103 -10t-113.5 -35t-129 -66.5t-147.5 -105.5h-4l2 193h-41v-1090z" />
<glyph unicode="n" horiz-adv-x="1476" d="M246 0h41v846q27 23 63.5 48.5t78.5 51t84 47t77 33.5q147 53 268 53q102 0 165.5 -25.5t102.5 -64.5q47 -47 60.5 -105.5t13.5 -117.5v-766h41v768q0 86 -21.5 143.5t-64.5 102.5q-47 47 -119.5 73.5t-173.5 26.5q-68 0 -137.5 -13.5t-142.5 -41.5q-145 -59 -291 -168 h-6l2 199h-41v-1090z" />
<glyph unicode="o" horiz-adv-x="1513" d="M143 545q0 -115 38 -217.5t114 -181t191.5 -125t271.5 -46.5q160 0 275.5 48.5t190 128t110.5 181t36 210.5v2q0 135 -47 240.5t-130 179t-194.5 111.5t-240.5 38t-242 -38t-195.5 -111.5t-130 -179t-47.5 -240.5zM184 543q0 125 44 224t121 169t182.5 105.5t226.5 35.5 t225 -35.5t181 -105.5t121 -169t44 -224q0 -104 -34.5 -200.5t-105.5 -171.5t-178.5 -119t-250.5 -44h-2q-145 0 -254 44t-179.5 119t-105.5 171t-35 201z" />
<glyph unicode="p" horiz-adv-x="1503" d="M246 -508h41v678h4q47 -43 105.5 -82t109.5 -61q82 -35 149.5 -43.5t116.5 -8.5q147 0 258 49.5t178 122.5q82 88 117 193t35 209q0 123 -40 220t-108 169q-166 176 -440 176q-84 0 -151.5 -14.5t-126.5 -40.5q-70 -31 -120 -68t-85 -73h-4l2 172h-41v-1598zM287 219v651 q47 51 104.5 91t116.5 67q68 31 133.5 41t130.5 10q135 0 237.5 -44t172.5 -120q70 -74 103.5 -169t33.5 -197q0 -123 -39 -216t-100 -159q-82 -88 -187.5 -126t-220.5 -38q-78 0 -142.5 13.5t-113.5 35.5q-47 23 -104.5 59t-124.5 101z" />
<glyph unicode="q" horiz-adv-x="1503" d="M143 549q0 -104 35 -208.5t117 -193.5q68 -74 178.5 -123t257.5 -49q49 0 116.5 8.5t149.5 43.5q51 23 109.5 61.5t105.5 81.5h5v-678h40v1598h-40l2 -172h-5q-35 37 -85 73.5t-119 67.5q-59 27 -127 41t-152 14q-274 0 -440 -176q-68 -72 -108 -169t-40 -220zM184 549 q0 102 34 197.5t104 168.5q72 76 173 120t236 44q66 0 131.5 -10t132.5 -41q59 -27 116.5 -66.5t105.5 -91.5v-651q-68 -66 -125.5 -101.5t-104.5 -58.5q-49 -23 -113.5 -36t-142.5 -13q-115 0 -219 39t-188 125q-63 66 -101.5 159t-38.5 216z" />
<glyph unicode="r" horiz-adv-x="1150" d="M246 0h41v864q55 47 117.5 89t125.5 71q70 33 130.5 44t113.5 11q94 0 160 -30q51 -25 94 -70l27 31q-27 23 -50.5 40t-54.5 31q-41 18 -85 25.5t-91 7.5q-72 0 -136.5 -16.5t-123.5 -45t-112.5 -63.5t-112.5 -80h-4l2 181h-41v-1090z" />
<glyph unicode="s" horiz-adv-x="1335" d="M123 152q43 -39 93 -71t120 -54q74 -23 161 -37.5t189 -14.5q133 0 232.5 27t166.5 74q66 47 96.5 97t30.5 128q0 53 -22.5 103.5t-63.5 82.5q-29 23 -63.5 40.5t-83.5 31.5t-120 27.5t-169 29.5q-106 16 -176 28.5t-116 25t-74.5 26t-55.5 33.5q-39 29 -53 62.5 t-14 68.5q0 55 29.5 93t80.5 65q70 35 165 47t194 12q184 0 296.5 -47t159.5 -115l31 27q-33 41 -73 68.5t-89 50.5q-74 33 -155.5 43t-169.5 10q-240 0 -375 -61q-66 -29 -100.5 -78t-34.5 -115q0 -100 92 -168q29 -20 60.5 -34.5t78.5 -27t114.5 -24.5t168.5 -26 q100 -16 169.5 -28.5t118 -26t80 -30t58.5 -38.5q39 -35 55 -78t16 -84q0 -59 -29.5 -107.5t-82.5 -83.5q-76 -49 -177.5 -70.5t-203.5 -21.5q-193 0 -329 50.5t-197 117.5z" />
<glyph unicode="t" horiz-adv-x="1384" d="M61 1053h340v-684q0 -127 49.5 -205t124 -120t162.5 -55.5t166 -13.5q70 0 133.5 11.5t118.5 29t98 38t74 36.5l-18 37q-29 -16 -71 -35.5t-94 -38t-112.5 -31t-124.5 -12.5q-78 0 -160.5 13.5t-150.5 52.5t-111 108.5t-43 184.5v684h760v37h-760v229h-41v-229h-340v-37z " />
<glyph unicode="u" horiz-adv-x="1476" d="M236 322q0 -86 21.5 -143.5t64.5 -102.5q47 -47 119.5 -74t172.5 -27q135 0 281 58q72 29 138.5 68.5t152.5 97.5h6l-2 -199h41v1090h-41v-846q-80 -61 -160 -106.5t-141 -69.5q-72 -29 -140.5 -43.5t-130.5 -14.5q-106 0 -168.5 28t-97.5 60q-49 47 -62.5 104.5 t-13.5 121.5v766h-40v-768z" />
<glyph unicode="v" horiz-adv-x="1368" d="M72 1090l592 -1090h38l594 1090h-43l-282 -529q-72 -133 -142.5 -264t-142.5 -266h-4q-70 129 -140.5 260t-142.5 266l-282 533h-45z" />
<glyph unicode="w" horiz-adv-x="2547" d="M72 1090l590 -1090h43l284 526q72 131 140.5 259t138.5 264h4q72 -135 142.5 -264.5t141.5 -262.5l285 -522h45l590 1090h-43l-283 -525q-72 -131 -142.5 -262t-141.5 -266h-6q-72 133 -142.5 263t-142.5 263l-287 527h-35l-286 -531q-72 -133 -140.5 -260t-140.5 -262 h-6q-72 135 -142.5 266t-142.5 264l-280 523h-43z" />
<glyph unicode="x" horiz-adv-x="1284" d="M127 0h49l463 539h4l465 -539h49v2l-489 565l444 520v3h-47l-420 -492h-6l-420 492h-49v-3l448 -520l-491 -565v-2z" />
<glyph unicode="y" horiz-adv-x="1353" d="M16 -465q23 -14 49.5 -26.5t63.5 -22.5q31 -10 69 -15.5t89 -5.5q102 0 171.5 30t119.5 75q51 45 80.5 97t50.5 97l573 1326h-43l-215 -502q-53 -129 -110.5 -261t-114.5 -266h-4q-80 129 -163 260.5t-165 262.5l-317 506h-48l676 -1074l-106 -241q-47 -109 -119 -178 q-53 -51 -119.5 -74t-146.5 -23q-41 0 -78 5.5t-68 15.5q-35 10 -61.5 24.5t-42.5 24.5z" />
<glyph unicode="z" horiz-adv-x="1236" d="M129 0h1034v37h-985l952 1012v41h-958v-37h911l-954 -1012v-41z" />
<glyph unicode="{" horiz-adv-x="950" d="M217 580q59 -6 97 -21.5t67 -46.5q29 -33 44 -79t15 -138v-295q0 -86 19.5 -143.5t56.5 -94.5q41 -41 99.5 -59t136.5 -22v32q-66 4 -117 19.5t-88 50.5q-31 29 -48.5 79t-17.5 134v321q0 80 -17.5 130.5t-47.5 84.5q-27 29 -64 44.5t-84 19.5v2q47 4 84 19.5t64 44.5 q31 35 48 85t17 130v321q0 84 18.5 133t47 80t84 48.5t121.5 21.5v32q-78 -4 -136.5 -22t-99.5 -59q-37 -37 -56.5 -94.5t-19.5 -143.5v-295q0 -92 -15 -138t-44 -79q-29 -31 -67 -46t-97 -22v-34z" />
<glyph unicode="|" horiz-adv-x="1214" d="M590 -512h37v2048h-37v-2048z" />
<glyph unicode="}" horiz-adv-x="950" d="M199 -287v-32q78 4 136 22t99 59q37 37 56.5 94.5t19.5 143.5v295q0 92 15.5 138t43.5 79q29 31 67 46.5t97 21.5v34q-59 6 -97 21.5t-67 46.5q-29 33 -44 79t-15 138v295q0 86 -19.5 143.5t-56.5 94.5q-41 41 -99.5 59t-135.5 22v-32q66 -4 121 -21.5t83.5 -48.5t47 -80 t18.5 -133v-321q0 -80 17.5 -130.5t48.5 -84.5q27 -29 63.5 -44.5t83.5 -19.5v-2q-47 -4 -84 -19.5t-63 -44.5q-31 -35 -48.5 -85t-17.5 -130v-321q0 -84 -17.5 -134t-48.5 -79q-37 -35 -88 -50.5t-116 -19.5z" />
<glyph unicode="~" horiz-adv-x="1638" d="M262 504l37 -19q29 29 80 54.5t145 25.5q47 0 100.5 -6t120.5 -24l132 -35q41 -10 102 -21.5t139 -11.5q111 0 171 33.5t87 64.5l-37 19q-29 -29 -80 -54.5t-145 -25.5q-47 0 -100 6t-121 25l-131 34q-41 10 -102.5 21.5t-139.5 11.5q-111 0 -171 -33.5t-87 -64.5z" />
<glyph unicode="&#xa1;" horiz-adv-x="655" d="M307 -455h41l-6 1133h-29zM307 834h41v163h-41v-163z" />
<glyph unicode="&#xa2;" horiz-adv-x="1744" d="M262 713q0 -127 41 -230.5t116 -177.5t181.5 -116t235.5 -48v-141h36v141q186 0 308 62t204 168l-32 22q-74 -102 -193 -159.5t-287 -57.5v1071q76 0 145.5 -16.5t129 -42t104.5 -59t74 -70.5l33 22q-80 92 -201 144.5t-285 56.5v135h-36v-137q-133 -8 -240 -52 t-180.5 -119t-113.5 -176.5t-40 -219.5zM303 713q0 113 37 207t105.5 162.5t168 110.5t222.5 52v-1067q-117 8 -215.5 47t-169 106.5t-109.5 163t-39 218.5z" />
<glyph unicode="&#xa3;" horiz-adv-x="1744" d="M260 707h262q29 -70 50.5 -142.5t21.5 -165.5q0 -129 -67.5 -218t-182.5 -148l16 -31q49 18 102.5 24.5t137.5 6.5q74 0 142.5 -7.5t135 -15.5t133 -15t138.5 -7q162 0 249 29.5t128 68.5l-27 25q-61 -49 -140 -68.5t-210 -19.5q-84 0 -147.5 7t-125 15t-127 15.5 t-149.5 7.5q-53 0 -87 -3.5t-73 -13.5l-2 4q96 61 144.5 144.5t48.5 199.5q0 92 -19.5 166t-46.5 142h557v34h-571q-31 80 -57.5 154t-26.5 162q0 160 104.5 253t333.5 93q272 0 383 -162l31 19q-66 98 -171.5 138t-246.5 40q-123 0 -211 -29t-146.5 -79t-86 -118.5 t-27.5 -148.5q0 -92 24.5 -169t53.5 -153h-248v-34z" />
<glyph unicode="&#xa5;" horiz-adv-x="1732" d="M250 1417l596 -792v-41h-567v-35h567v-207h-567v-35h567v-307h41v307h563v35h-563v207h563v35h-563v41l596 792h-51l-283 -377q-70 -94 -139.5 -188t-141.5 -195h-4q-70 98 -140.5 192.5t-141.5 190.5l-281 377h-51z" />
<glyph unicode="&#xa6;" horiz-adv-x="1214" d="M590 358v-716h37v716h-37zM590 666h37v716h-37v-716z" />
<glyph unicode="&#xa7;" horiz-adv-x="1593" d="M248 752q0 -74 34.5 -123t100.5 -84t159 -59.5t208 -49.5q57 -12 118.5 -25.5t117.5 -31t103.5 -36.5t77.5 -44q47 -37 72 -77t25 -105q0 -74 -38 -134.5t-100 -101.5q-72 -47 -158.5 -69.5t-189.5 -22.5q-98 0 -175 15.5t-135 40t-100 56t-69 66.5l-33 -24 q20 -25 58 -57.5t99.5 -61.5t150 -49.5t204.5 -20.5q109 0 205 24.5t180 84.5q61 45 101.5 107.5t40.5 140.5q0 74 -25 115.5t-51 70.5q74 47 120 113.5t46 136.5q0 88 -36 145.5t-103.5 97t-163 66.5t-211.5 53q-59 12 -114.5 25.5t-105 27t-88 25.5t-61.5 23 q-68 31 -100.5 75.5t-32.5 112.5q0 78 47 127t116.5 75.5t151.5 36t154 9.5q63 0 128.5 -8t123 -28.5t102.5 -55.5t68 -88l37 18q-27 55 -75 93t-109.5 61.5t-132 33t-144.5 9.5q-104 0 -196.5 -14.5t-168.5 -51.5q-57 -29 -100 -83t-43 -132q0 -59 26.5 -115.5t92.5 -91.5 q-25 -8 -60 -25.5t-68.5 -46t-57 -70.5t-23.5 -99zM289 743v2q0 90 53 145.5t152 84.5q109 -41 214 -65.5t200.5 -47t177 -44t141 -56.5t93.5 -84t34 -127q0 -72 -42 -135.5t-106 -98.5q-59 49 -149 79t-192.5 51.5l-205 43t-184.5 52t-134 78t-52 122.5z" />
<glyph unicode="&#xa8;" d="M260 1253h37v158h-37v-158zM727 1253h37v158h-37v-158z" />
<glyph unicode="&#xa9;" horiz-adv-x="2064" d="M276 727q0 -158 59.5 -295t162 -239.5t239.5 -162t293 -59.5t293 59.5t239.5 162t162 239.5t59.5 295q0 156 -59.5 293t-162 239.5t-238.5 162t-292 59.5h-2q-156 0 -293 -59.5t-239.5 -162t-162 -239.5t-59.5 -293zM315 727q0 147 56.5 278.5t154 229.5t227.5 154.5 t277 56.5h2q147 0 278.5 -56.5t228.5 -154.5t153.5 -229.5t56.5 -278.5q0 -150 -56.5 -281t-153.5 -229t-228 -154.5t-279 -56.5q-147 0 -278 56.5t-228.5 154.5t-154 229.5t-56.5 280.5zM612 731q0 -111 34 -199t95.5 -149t142.5 -95t179 -34q47 0 95 10t77 23 q39 16 72.5 37.5t62.5 50.5l-24 26q-18 -20 -52 -43.5t-71 -38.5q-33 -12 -72 -21t-92 -9q-74 0 -149.5 24.5t-141.5 94t-90.5 151.5t-24.5 172q0 119 33 193.5t80 122.5q66 66 139.5 94t153.5 28q51 0 79.5 -5t69.5 -19q29 -10 62 -29.5t57 -42.5l25 27q-31 29 -59.5 45 t-65.5 31q-41 16 -81 22t-83 6q-98 0 -178 -34.5t-143.5 -94t-96.5 -147.5t-33 -197z" />
<glyph unicode="&#xaa;" horiz-adv-x="931" d="M160 946q0 -55 27.5 -89t68.5 -52.5t88 -25.5t88 -7q63 0 139 22.5t136 75.5h4q0 -23 7 -43t30 -41h43v5q-23 16 -34.5 34.5t-11.5 46.5v291q0 55 -2 105.5t-26.5 89.5t-79.5 62.5t-162 23.5q-102 0 -157.5 -11.5t-70 -21.5t-16.5 -12v-37q2 2 23.5 13t79 23.5 t147.5 12.5q86 0 132 -20.5t67.5 -49t25 -59.5t3.5 -53v-25q-152 -12 -256.5 -30.5t-170 -49t-94 -74.5t-28.5 -104zM197 950q0 47 27.5 84t89 64.5t158.5 45t237 27.5v-258q-119 -109 -291 -108q-31 0 -70 5t-72.5 21.5t-56 44t-22.5 74.5z" />
<glyph unicode="&#xab;" horiz-adv-x="1118" d="M170 508l397 -383v45l-338 338v4l338 338v45l-397 -383v-4zM506 508l397 -383v45l-338 338v4l338 338v45l-397 -383v-4z" />
<glyph unicode="&#xac;" horiz-adv-x="1638" d="M295 633h1012v-307h36v340h-1048v-33z" />
<glyph unicode="&#xad;" horiz-adv-x="817" d="M31 651h579v37h-579v-37z" />
<glyph unicode="&#xae;" horiz-adv-x="2064" d="M279 727q0 -158 59 -295t161.5 -239.5t240 -162t292.5 -59.5q156 0 293 59.5t239.5 162t162 239.5t59.5 295q0 156 -59.5 293t-162 239.5t-238.5 162t-292 59.5h-2q-156 0 -293 -59.5t-239.5 -162t-161.5 -239.5t-59 -293zM317 727q0 147 56.5 278.5t154 229.5 t227.5 154.5t277 56.5h2q147 0 278.5 -56.5t228.5 -154.5t153.5 -229.5t56.5 -278.5q0 -150 -56.5 -281t-153.5 -229t-228 -154.5t-279 -56.5q-147 0 -278 56.5t-228.5 154.5t-154 229.5t-56.5 280.5zM770 258h41v432h231l371 -432h51l-372 434q31 2 75.5 13.5t87.5 41 t74 80t31 127.5q0 51 -17.5 97.5t-64.5 81.5q-45 35 -122 56t-193 21h-193v-952zM811 725v451h152q76 0 141 -10.5t112.5 -36t75 -70.5t27.5 -113q0 -98 -71.5 -159.5t-211.5 -61.5h-225z" />
<glyph unicode="&#xaf;" d="M246 1311h532v37h-532v-37z" />
<glyph unicode="&#xb0;" horiz-adv-x="1036" d="M266 1192q0 -53 19.5 -98t54.5 -80t80 -54.5t98 -19.5q51 0 97.5 19.5t81 54.5t54 80t19.5 98q0 51 -19.5 97t-53 81t-80 54.5t-97.5 19.5h-2q-53 0 -98 -19.5t-80 -54.5t-54.5 -81t-19.5 -97zM309 1192q0 43 16.5 82t45 67.5t66.5 45t81 16.5h2q43 0 82 -16.5t67.5 -45 t45 -67.5t16.5 -82t-16.5 -82t-45 -67.5t-67.5 -45t-82 -16.5t-82 16.5t-67.5 45t-45 67.5t-16.5 82z" />
<glyph unicode="&#xb1;" horiz-adv-x="1638" d="M295 0h1048v33h-1048v-33zM295 502h506v-371h37v371h505v33h-505v378h-37v-378h-506v-33z" />
<glyph unicode="&#xb2;" horiz-adv-x="1112" d="M176 598l23 -18h721v36h-705q41 90 108.5 149.5t144.5 102.5t157 76t143 71t103 85t40 119q0 111 -96 168t-256 57q-164 0 -246 -56.5t-102 -132.5l39 -6q8 25 25.5 52.5t52 52t89 40t134.5 15.5q162 0 242.5 -51t80.5 -137q0 -68 -41.5 -113t-108.5 -81t-147.5 -69.5 t-158.5 -81t-143.5 -113t-98.5 -165.5z" />
<glyph unicode="&#xb3;" horiz-adv-x="1112" d="M178 766q45 -106 135 -155.5t238 -49.5q184 0 270 67t86 171q0 72 -33.5 118t-83 71.5t-104.5 34.5t-98 9v4q133 10 202.5 58.5t69.5 152.5q0 25 -9 58.5t-42 64.5t-93.5 52.5t-164.5 21.5q-141 0 -226 -43t-108 -141l37 -9q27 86 96.5 122t202.5 36q92 0 145.5 -19.5 t81 -47t35.5 -56.5t8 -49q0 -84 -88 -136t-256 -52v-31q174 0 282.5 -50t108.5 -159q0 -94 -73.5 -153.5t-231.5 -59.5q-152 0 -230.5 45t-119.5 135z" />
<glyph unicode="&#xb4;" d="M467 1171h35l325 232h-75z" />
<glyph unicode="&#xb5;" horiz-adv-x="1476" d="M236 -508h40v643h5q16 -35 41 -59q47 -47 119.5 -74t172.5 -27q135 0 281 58q72 29 138.5 68.5t152.5 97.5h6l-2 -199h41v1090h-41v-846q-80 -61 -160 -106.5t-141 -69.5q-72 -29 -140.5 -43.5t-130.5 -14.5q-106 0 -169.5 28t-98.5 62q-47 47 -60.5 103.5t-13.5 120.5 v766h-40v-1598z" />
<glyph unicode="&#xb6;" horiz-adv-x="1339" d="M113 1053q0 -115 43 -191t110 -123q70 -47 159 -66.5t187 -19.5v-1128h37v1892h320v-1892h37v1927h-433q-111 0 -194.5 -28.5t-143 -82t-91 -126t-31.5 -162.5z" />
<glyph unicode="&#xb7;" horiz-adv-x="532" d="M229 518q0 -16 10.5 -26.5t26.5 -10.5t26.5 10.5t10.5 26.5t-10 26.5t-25 10.5h-2q-16 0 -26.5 -10t-10.5 -27z" />
<glyph unicode="&#xb8;" d="M305 -317q25 -12 74 -26.5t115 -14.5q98 0 158.5 34t60.5 95q0 41 -23.5 65.5t-57.5 36.5t-75 14t-74 -4l92 117h-43l-110 -141l27 -15q23 6 61.5 9.5t75.5 -3t63.5 -25t26.5 -54.5q0 -25 -17.5 -43.5t-43 -29.5t-58.5 -16.5t-63 -5.5q-53 0 -95.5 9.5t-72.5 25.5z" />
<glyph unicode="&#xb9;" horiz-adv-x="1112" d="M356 1327l13 -31l213 99v-815h36v856h-18z" />
<glyph unicode="&#xba;" horiz-adv-x="950" d="M111 1108q0 -78 26.5 -139.5t75.5 -105.5t116.5 -67.5t147.5 -23.5q82 0 149.5 23.5t117 67.5t76 105.5t26.5 139.5q0 76 -26.5 138.5t-76 106.5t-117 67.5t-149.5 23.5q-80 0 -147.5 -23.5t-116.5 -67.5t-75.5 -105.5t-26.5 -137.5v-2zM147 1110q0 135 89.5 219 t238.5 84h2q76 0 137.5 -22.5t104.5 -62.5t66.5 -95t23.5 -123t-23.5 -124t-66.5 -96t-104.5 -61.5t-137.5 -21.5q-152 0 -241 84t-89 219z" />
<glyph unicode="&#xbb;" horiz-adv-x="1118" d="M215 125l397 383v4l-397 383v-45l338 -338v-4l-338 -338v-45zM551 125l397 383v4l-397 383v-45l338 -338v-4l-338 -338v-45z" />
<glyph unicode="&#xbc;" horiz-adv-x="2377" d="M356 1327l13 -31l213 99v-815h36v856h-18zM410 -25h47l1245 1469h-45zM1300 240h560v-240h36v240h193v32h-193v582h-36l-560 -592v-22zM1356 272l241 256q66 70 130.5 138.5t130.5 138.5h4q-2 -70 -2 -139v-140v-254h-504z" />
<glyph unicode="&#xbd;" horiz-adv-x="2377" d="M338 1370l10 -33l195 58v-815h37v856h-19zM362 -25h48l1245 1469h-45zM1368 18l23 -18h720v37h-704q41 90 108.5 149.5t144.5 102.5t156.5 75.5t143 70.5t103.5 85t40 119q0 111 -96 168t-256 57q-164 0 -246 -56t-102 -132l39 -6q8 25 25.5 52.5t52 52t89 39.5t134.5 15 q162 0 242.5 -51t80.5 -137q0 -68 -42 -113t-108.5 -80.5t-147 -69.5t-158.5 -81t-142.5 -112.5t-99.5 -166.5z" />
<glyph unicode="&#xbe;" horiz-adv-x="2551" d="M178 766q45 -106 135 -155.5t238 -49.5q184 0 270 67t86 171q0 72 -33.5 118t-83 71.5t-104.5 34.5t-98 9v4q133 10 202.5 58.5t69.5 152.5q0 25 -9 58.5t-42 64.5t-93.5 52.5t-164.5 21.5q-141 0 -226 -43t-108 -141l37 -9q27 86 96.5 122t202.5 36q92 0 145.5 -19.5 t81 -47t35.5 -56.5t8 -49q0 -84 -88 -136t-256 -52v-31q174 0 282.5 -50t108.5 -159q0 -94 -73.5 -153.5t-231.5 -59.5q-152 0 -230.5 45t-119.5 135zM616 -25h48l1245 1469h-45zM1475 240h559v-240h37v240h192v32h-192v582h-37l-559 -592v-22zM1530 272l242 256 q66 70 130 138.5t130 138.5h4q-2 -70 -2 -139v-140v-254h-504z" />
<glyph unicode="&#xbf;" horiz-adv-x="1202" d="M35 -133q0 -94 43 -158.5t117.5 -103.5t174 -55.5t212.5 -16.5q137 0 237.5 20.5t171 57.5t115.5 86t72 106l-37 15q-55 -113 -189.5 -181.5t-361.5 -68.5q-100 0 -192.5 14.5t-164 48t-114.5 90t-43 142.5q0 57 14 102t45 83t81 72t122 68q106 51 174 98.5t105.5 102.5 t50 125t8.5 164h-31q2 -80 -8 -142.5t-44 -114.5t-96.5 -98.5t-162.5 -95.5q-84 -41 -141.5 -78.5t-92 -79.5t-50 -91.5t-15.5 -110.5zM635 834h41v163h-41v-163z" />
<glyph unicode="&#xc0;" horiz-adv-x="1415" d="M51 0h47l226 506h763l228 -506h49l-643 1452h-29zM342 545l184 428q45 102 88 204.5t88 213.5h7q47 -115 92 -218.5t90 -207.5l180 -420h-729zM440 1694l363 -185h49l-301 185h-111z" />
<glyph unicode="&#xc1;" horiz-adv-x="1415" d="M51 0h47l226 506h763l228 -506h49l-643 1452h-29zM342 545l184 428q45 102 88 204.5t88 213.5h7q47 -115 92 -218.5t90 -207.5l180 -420h-729zM573 1509h50l362 185h-111z" />
<glyph unicode="&#xc2;" horiz-adv-x="1415" d="M51 0h47l226 506h763l228 -506h49l-643 1452h-29zM342 545l184 428q45 102 88 204.5t88 213.5h7q47 -115 92 -218.5t90 -207.5l180 -420h-729zM401 1554h37l269 91h4l268 -91h37l-305 138h-4z" />
<glyph unicode="&#xc3;" horiz-adv-x="1415" d="M51 0h47l226 506h763l228 -506h49l-643 1452h-29zM342 545l184 428q45 102 88 204.5t88 213.5h7q47 -115 92 -218.5t90 -207.5l180 -420h-729zM397 1606l25 -25q29 35 62.5 44t78.5 9q35 0 67 -6t48 -10l45 -14q37 -12 68.5 -15.5t56.5 -3.5q53 0 97 16.5t73 51.5l-25 24 q-29 -33 -64.5 -44t-80.5 -11q-35 0 -66.5 6t-48.5 10l-45 15q-35 10 -67.5 14t-57.5 4q-53 0 -95 -15.5t-71 -49.5z" />
<glyph unicode="&#xc4;" horiz-adv-x="1415" d="M51 0h47l226 506h763l228 -506h49l-643 1452h-29zM342 545l184 428q45 102 88 204.5t88 213.5h7q47 -115 92 -218.5t90 -207.5l180 -420h-729zM453 1530h36v147h-36v-147zM928 1530h37v147h-37v-147z" />
<glyph unicode="&#xc5;" horiz-adv-x="1415" d="M51 0h47l226 506h763l228 -506h49l-643 1452h-29zM342 545l184 428q45 102 88 204.5t88 213.5h7q47 -115 92 -218.5t90 -207.5l180 -420h-729zM551 1589q0 -61 49 -94t107 -33h2q59 0 108 33t49 94t-49 94t-108 33t-108.5 -32.5t-49.5 -94.5zM588 1589q0 43 34.5 67.5 t84.5 24.5q49 0 83.5 -24.5t34.5 -67.5q0 -35 -28.5 -63.5t-87.5 -28.5h-2q-61 0 -90 28.5t-29 63.5z" />
<glyph unicode="&#xc6;" horiz-adv-x="2293" d="M-20 0h49l395 506h704v-506h981v39h-935v700h737v39h-737v635h907v39h-971zM453 545l340 438q84 109 165.5 215.5t165.5 220.5h4v-440v-434h-675z" />
<glyph unicode="&#xc7;" horiz-adv-x="1728" d="M164 727q0 -174 61.5 -315.5t173.5 -245.5q86 -80 222.5 -135.5t310.5 -59.5l-101 -139l27 -14q49 8 94 8t80 -10.5t56.5 -31t21.5 -52.5q0 -39 -48 -72t-161 -33q-59 0 -105 10.5t-77 24.5l-21 -29q31 -16 85.5 -28.5t127.5 -12.5q127 0 183.5 43t56.5 97 q0 41 -23.5 68.5t-60.5 43t-82 18.5t-88 -5l82 114q113 4 207 37t169 82t130 107.5t94 111.5l-35 25q-33 -45 -85 -101.5t-125.5 -106.5t-169 -84t-212.5 -34q-141 0 -275 43t-237.5 132t-167 224.5t-63.5 317.5q0 193 66.5 330t174 223t242.5 126t271 40q100 0 182 -23.5 t147.5 -63.5t115.5 -92.5t87 -109.5l37 23q-39 61 -94.5 116.5t-126 96.5t-157.5 65.5t-191 24.5q-176 0 -321.5 -53.5t-252 -151.5t-166 -236.5t-59.5 -312.5z" />
<glyph unicode="&#xc8;" horiz-adv-x="1472" d="M307 0h981v39h-936v700h738v39h-738v635h908v39h-953v-1452zM387 1694l363 -185h49l-301 185h-111z" />
<glyph unicode="&#xc9;" horiz-adv-x="1472" d="M307 0h981v39h-936v700h738v39h-738v635h908v39h-953v-1452zM684 1509h49l363 185h-111z" />
<glyph unicode="&#xca;" horiz-adv-x="1472" d="M307 0h981v39h-936v700h738v39h-738v635h908v39h-953v-1452zM430 1554h37l268 91h4l269 -91h36l-305 138h-4z" />
<glyph unicode="&#xcb;" horiz-adv-x="1472" d="M307 0h981v39h-936v700h738v39h-738v635h908v39h-953v-1452zM522 1571h37v147h-37v-147zM997 1571h37v147h-37v-147z" />
<glyph unicode="&#xcc;" horiz-adv-x="700" d="M82 1694l362 -185h50l-301 185h-111zM328 0h45v1452h-45v-1452z" />
<glyph unicode="&#xcd;" horiz-adv-x="700" d="M215 1509h49l363 185h-111zM328 0h45v1452h-45v-1452z" />
<glyph unicode="&#xce;" horiz-adv-x="700" d="M43 1554h37l268 91h4l269 -91h36l-305 138h-4zM328 0h45v1452h-45v-1452z" />
<glyph unicode="&#xcf;" horiz-adv-x="700" d="M94 1530h37v147h-37v-147zM328 0h45v1452h-45v-1452zM569 1530h37v147h-37v-147z" />
<glyph unicode="&#xd0;" horiz-adv-x="1804" d="M123 737h184v-737h463q211 0 367.5 51t259 146.5t152.5 229.5t50 298q0 166 -50 300t-152.5 229.5t-259 146.5t-367.5 51h-463v-676h-184v-39zM352 39v698h518v39h-518v637h422q203 0 350.5 -50t242.5 -140t141 -217t46 -281t-46 -280t-141 -216t-242.5 -140t-350.5 -50 h-422z" />
<glyph unicode="&#xd1;" horiz-adv-x="1851" d="M307 0h45q0 522 -1 871.5t-3 531.5h6q143 -182 427 -531.5t708 -871.5h55v1452h-45v-874t4 -529h-6q-143 180 -426 528.5t-709 874.5h-55v-1452zM614 1606l25 -25q29 35 62.5 44t78.5 9q35 0 67 -6t48 -10l45 -14q37 -12 68.5 -15.5t56.5 -3.5q53 0 97 16.5t73 51.5 l-25 24q-29 -33 -64.5 -44t-80.5 -11q-35 0 -66.5 6t-48.5 10l-45 15q-35 10 -67.5 14t-57.5 4q-53 0 -95 -15.5t-71 -49.5z" />
<glyph unicode="&#xd2;" horiz-adv-x="1925" d="M164 725q0 -190 66.5 -331.5t177 -236t255 -140.5t300.5 -46t300 46t254.5 140.5t177 236t66.5 331.5t-66.5 332.5t-177 237t-255 140.5t-299.5 46q-156 0 -300.5 -46t-255 -140.5t-177 -235.5t-66.5 -332v-2zM209 727q0 184 62.5 319.5t167 224.5t240.5 132t282 43h2 q147 0 283 -43t240.5 -132t167 -224.5t62.5 -319.5q0 -182 -62.5 -317.5t-167 -224.5t-240.5 -132t-283 -43t-283.5 43t-241 132t-167 224.5t-62.5 317.5zM610 1696l363 -185h49l-301 185h-111z" />
<glyph unicode="&#xd3;" horiz-adv-x="1925" d="M164 725q0 -190 66.5 -331.5t177 -236t255 -140.5t300.5 -46t300 46t254.5 140.5t177 236t66.5 331.5t-66.5 332.5t-177 237t-255 140.5t-299.5 46q-156 0 -300.5 -46t-255 -140.5t-177 -235.5t-66.5 -332v-2zM209 727q0 184 62.5 319.5t167 224.5t240.5 132t282 43h2 q147 0 283 -43t240.5 -132t167 -224.5t62.5 -319.5q0 -182 -62.5 -317.5t-167 -224.5t-240.5 -132t-283 -43t-283.5 43t-241 132t-167 224.5t-62.5 317.5zM907 1511h49l363 185h-111z" />
<glyph unicode="&#xd4;" horiz-adv-x="1925" d="M164 725q0 -190 66.5 -331.5t177 -236t255 -140.5t300.5 -46t300 46t254.5 140.5t177 236t66.5 331.5t-66.5 332.5t-177 237t-255 140.5t-299.5 46q-156 0 -300.5 -46t-255 -140.5t-177 -235.5t-66.5 -332v-2zM209 727q0 184 62.5 319.5t167 224.5t240.5 132t282 43h2 q147 0 283 -43t240.5 -132t167 -224.5t62.5 -319.5q0 -182 -62.5 -317.5t-167 -224.5t-240.5 -132t-283 -43t-283.5 43t-241 132t-167 224.5t-62.5 317.5zM653 1556h37l268 91h5l268 -91h37l-305 138h-5z" />
<glyph unicode="&#xd5;" horiz-adv-x="1925" d="M164 725q0 -190 66.5 -331.5t177 -236t255 -140.5t300.5 -46t300 46t254.5 140.5t177 236t66.5 331.5t-66.5 332.5t-177 237t-255 140.5t-299.5 46q-156 0 -300.5 -46t-255 -140.5t-177 -235.5t-66.5 -332v-2zM209 727q0 184 62.5 319.5t167 224.5t240.5 132t282 43h2 q147 0 283 -43t240.5 -132t167 -224.5t62.5 -319.5q0 -182 -62.5 -317.5t-167 -224.5t-240.5 -132t-283 -43t-283.5 43t-241 132t-167 224.5t-62.5 317.5zM649 1608l25 -25q29 35 62.5 44t78.5 9q35 0 66.5 -6t48.5 -10l45 -14q37 -12 68.5 -15.5t56.5 -3.5q53 0 97 16.5 t73 51.5l-25 24q-29 -33 -64.5 -44t-80.5 -11q-35 0 -67 6t-48 10l-45 15q-35 10 -67.5 14t-57.5 4q-53 0 -95 -15.5t-71 -49.5z" />
<glyph unicode="&#xd6;" horiz-adv-x="1925" d="M164 725q0 -190 66.5 -331.5t177 -236t255 -140.5t300.5 -46t300 46t254.5 140.5t177 236t66.5 331.5t-66.5 332.5t-177 237t-255 140.5t-299.5 46q-156 0 -300.5 -46t-255 -140.5t-177 -235.5t-66.5 -332v-2zM209 727q0 184 62.5 319.5t167 224.5t240.5 132t282 43h2 q147 0 283 -43t240.5 -132t167 -224.5t62.5 -319.5q0 -182 -62.5 -317.5t-167 -224.5t-240.5 -132t-283 -43t-283.5 43t-241 132t-167 224.5t-62.5 317.5zM705 1532h36v147h-36v-147zM1180 1532h37v147h-37v-147z" />
<glyph unicode="&#xd7;" horiz-adv-x="1638" d="M344 66l23 -23l452 453l453 -453l22 23l-452 452l452 453l-22 22l-453 -452l-452 452l-23 -22l453 -453z" />
<glyph unicode="&#xd8;" horiz-adv-x="1925" d="M139 2l29 -31l217 207q111 -102 257 -154.5t319 -52.5q156 0 301 46t255.5 140.5t177 236t66.5 331.5q0 96 -17.5 176t-45 144.5t-63.5 115.5t-72 90l223 199l-29 31l-217 -207q-111 102 -257 154.5t-320 52.5q-156 0 -300.5 -46t-255 -140.5t-177 -237t-66.5 -332.5 q0 -96 17.5 -175t45 -143.5t63.5 -115.5t72 -90zM209 725q0 184 62.5 319.5t167 224.5t240.5 132t284 43q104 0 192 -18.5t152 -45.5q66 -29 117.5 -60.5t88.5 -66.5l-1128 -1036q-84 98 -130 227t-46 281zM412 199l1128 1036q84 -98 130 -228t46 -282q0 -182 -62.5 -317.5 t-167 -224.5t-240.5 -132t-283 -43q-104 0 -192.5 18.5t-152.5 45.5q-70 29 -119.5 60.5t-86.5 66.5z" />
<glyph unicode="&#xd9;" horiz-adv-x="1705" d="M287 588q0 -178 32.5 -297t101 -189.5t175 -100.5t254.5 -30q152 0 259.5 30t177 100.5t101 189.5t31.5 297v864h-45v-860q0 -158 -23.5 -268.5t-83 -180t-160.5 -102.5t-257 -33q-152 0 -251 33t-158.5 102.5t-84 180t-24.5 268.5v860h-45v-864zM504 1694l362 -185h49 l-301 185h-110z" />
<glyph unicode="&#xda;" horiz-adv-x="1705" d="M287 588q0 -178 32.5 -297t101 -189.5t175 -100.5t254.5 -30q152 0 259.5 30t177 100.5t101 189.5t31.5 297v864h-45v-860q0 -158 -23.5 -268.5t-83 -180t-160.5 -102.5t-257 -33q-152 0 -251 33t-158.5 102.5t-84 180t-24.5 268.5v860h-45v-864zM801 1509h49l362 185 h-110z" />
<glyph unicode="&#xdb;" horiz-adv-x="1705" d="M287 588q0 -178 32.5 -297t101 -189.5t175 -100.5t254.5 -30q152 0 259.5 30t177 100.5t101 189.5t31.5 297v864h-45v-860q0 -158 -23.5 -268.5t-83 -180t-160.5 -102.5t-257 -33q-152 0 -251 33t-158.5 102.5t-84 180t-24.5 268.5v860h-45v-864zM547 1554h37l268 91h4 l268 -91h37l-305 138h-4z" />
<glyph unicode="&#xdc;" horiz-adv-x="1705" d="M287 588q0 -178 32.5 -297t101 -189.5t175 -100.5t254.5 -30q152 0 259.5 30t177 100.5t101 189.5t31.5 297v864h-45v-860q0 -158 -23.5 -268.5t-83 -180t-160.5 -102.5t-257 -33q-152 0 -251 33t-158.5 102.5t-84 180t-24.5 268.5v860h-45v-864zM598 1489h37v147h-37 v-147zM1073 1489h37v147h-37v-147z" />
<glyph unicode="&#xdd;" horiz-adv-x="1433" d="M72 1452l622 -827v-625h45v625l623 827h-51l-295 -393q-74 -98 -147.5 -196.5t-149.5 -198.5h-4q-74 98 -148.5 195t-148.5 198l-295 395h-51zM664 1509h49l362 185h-110z" />
<glyph unicode="&#xde;" horiz-adv-x="1660" d="M307 0h45v348h387q217 0 369 31t247 87t138 136t43 178q0 94 -41 172t-131 133.5t-233.5 86t-350.5 30.5h-428v250h-45v-1452zM352 387v776h445q195 0 327.5 -29.5t213.5 -82t117 -122t36 -149.5q0 -88 -38 -159.5t-127 -124t-233.5 -81t-357.5 -28.5h-383z" />
<glyph unicode="&#xdf;" horiz-adv-x="1515" d="M246 -492h41v1516q0 55 6 117.5t23.5 125t50 119t86 100.5t131.5 69.5t184 25.5q141 0 219 -41t114 -93t42 -103.5t6 -69.5q0 -74 -25.5 -131.5t-85 -95t-159 -57t-246.5 -19.5h-4v-35h10q362 0 529 -105.5t167 -330.5q0 -98 -30.5 -183.5t-100 -148t-181.5 -98 t-271 -35.5h-62v-35h64q184 0 305 43t191.5 113.5t98 161t27.5 184.5q0 135 -50 221t-128 136t-173 69.5t-187 21.5v4q92 2 153.5 22.5t100 51.5t59 66.5t29 69.5t9.5 61.5t1 42.5q0 33 -10.5 91t-52.5 115.5t-125.5 99.5t-233.5 42q-113 0 -194.5 -26.5t-140 -71.5 t-94.5 -104.5t-57.5 -125t-28.5 -133.5t-7 -127v-1520z" />
<glyph unicode="&#xe0;" horiz-adv-x="1337" d="M133 276q0 -53 21.5 -106t75 -96t143.5 -71t229 -28q43 0 102.5 8.5t123 30t125 58.5t108.5 92h2q0 -51 11 -88t46 -76h47v4q-23 25 -35 43.5t-19 37.5t-9 45t-2 67v573q0 168 -101.5 256t-345.5 88q-111 0 -175 -11l-64 -11l4 -33q2 0 18.5 5t69.5 10t145 5 q115 0 193 -19.5t126 -59t68.5 -100t20.5 -140.5v-53q-231 -18 -405.5 -47t-290 -77t-174 -122t-58.5 -185zM174 279q0 100 57.5 167.5t169 111.5t277.5 69.5t383 44.5v-463q-51 -66 -115.5 -104.5t-127 -60t-119 -28t-93.5 -6.5q-131 0 -215 25.5t-132 64.5t-66.5 86 t-18.5 93zM354 1403l326 -232h35l-285 232h-76z" />
<glyph unicode="&#xe1;" horiz-adv-x="1337" d="M133 276q0 -53 21.5 -106t75 -96t143.5 -71t229 -28q43 0 102.5 8.5t123 30t125 58.5t108.5 92h2q0 -51 11 -88t46 -76h47v4q-23 25 -35 43.5t-19 37.5t-9 45t-2 67v573q0 168 -101.5 256t-345.5 88q-111 0 -175 -11l-64 -11l4 -33q2 0 18.5 5t69.5 10t145 5 q115 0 193 -19.5t126 -59t68.5 -100t20.5 -140.5v-53q-231 -18 -405.5 -47t-290 -77t-174 -122t-58.5 -185zM174 279q0 100 57.5 167.5t169 111.5t277.5 69.5t383 44.5v-463q-51 -66 -115.5 -104.5t-127 -60t-119 -28t-93.5 -6.5q-131 0 -215 25.5t-132 64.5t-66.5 86 t-18.5 93zM625 1171h34l326 232h-76z" />
<glyph unicode="&#xe2;" horiz-adv-x="1337" d="M133 276q0 -53 21.5 -106t75 -96t143.5 -71t229 -28q43 0 102.5 8.5t123 30t125 58.5t108.5 92h2q0 -51 11 -88t46 -76h47v4q-23 25 -35 43.5t-19 37.5t-9 45t-2 67v573q0 168 -101.5 256t-345.5 88q-111 0 -175 -11l-64 -11l4 -33q2 0 18.5 5t69.5 10t145 5 q115 0 193 -19.5t126 -59t68.5 -100t20.5 -140.5v-53q-231 -18 -405.5 -47t-290 -77t-174 -122t-58.5 -185zM174 279q0 100 57.5 167.5t169 111.5t277.5 69.5t383 44.5v-463q-51 -66 -115.5 -104.5t-127 -60t-119 -28t-93.5 -6.5q-131 0 -215 25.5t-132 64.5t-66.5 86 t-18.5 93zM383 1210h37l248 136h4l248 -136h36l-284 189h-4z" />
<glyph unicode="&#xe3;" horiz-adv-x="1337" d="M133 276q0 -53 21.5 -106t75 -96t143.5 -71t229 -28q43 0 102.5 8.5t123 30t125 58.5t108.5 92h2q0 -51 11 -88t46 -76h47v4q-23 25 -35 43.5t-19 37.5t-9 45t-2 67v573q0 168 -101.5 256t-345.5 88q-111 0 -175 -11l-64 -11l4 -33q2 0 18.5 5t69.5 10t145 5 q115 0 193 -19.5t126 -59t68.5 -100t20.5 -140.5v-53q-231 -18 -405.5 -47t-290 -77t-174 -122t-58.5 -185zM174 279q0 100 57.5 167.5t169 111.5t277.5 69.5t383 44.5v-463q-51 -66 -115.5 -104.5t-127 -60t-119 -28t-93.5 -6.5q-131 0 -215 25.5t-132 64.5t-66.5 86 t-18.5 93zM391 1311l25 -25q27 29 55.5 38t69.5 9q31 0 61.5 -6t46.5 -10l41 -12q33 -10 61.5 -13.5t51.5 -3.5q47 0 84.5 13.5t64.5 46.5l-24 24q-27 -29 -55.5 -38t-69.5 -9q-31 0 -61.5 6t-47.5 10l-41 13q-33 10 -61.5 13t-50.5 3q-47 0 -85 -13.5t-65 -45.5z" />
<glyph unicode="&#xe4;" horiz-adv-x="1337" d="M133 276q0 -53 21.5 -106t75 -96t143.5 -71t229 -28q43 0 102.5 8.5t123 30t125 58.5t108.5 92h2q0 -51 11 -88t46 -76h47v4q-23 25 -35 43.5t-19 37.5t-9 45t-2 67v573q0 168 -101.5 256t-345.5 88q-111 0 -175 -11l-64 -11l4 -33q2 0 18.5 5t69.5 10t145 5 q115 0 193 -19.5t126 -59t68.5 -100t20.5 -140.5v-53q-231 -18 -405.5 -47t-290 -77t-174 -122t-58.5 -185zM174 279q0 100 57.5 167.5t169 111.5t277.5 69.5t383 44.5v-463q-51 -66 -115.5 -104.5t-127 -60t-119 -28t-93.5 -6.5q-131 0 -215 25.5t-132 64.5t-66.5 86 t-18.5 93zM418 1253h37v158h-37v-158zM885 1253h37v158h-37v-158z" />
<glyph unicode="&#xe5;" horiz-adv-x="1337" d="M133 276q0 -53 21.5 -106t75 -96t143.5 -71t229 -28q43 0 102.5 8.5t123 30t125 58.5t108.5 92h2q0 -51 11 -88t46 -76h47v4q-23 25 -35 43.5t-19 37.5t-9 45t-2 67v573q0 168 -101.5 256t-345.5 88q-111 0 -175 -11l-64 -11l4 -33q2 0 18.5 5t69.5 10t145 5 q115 0 193 -19.5t126 -59t68.5 -100t20.5 -140.5v-53q-231 -18 -405.5 -47t-290 -77t-174 -122t-58.5 -185zM174 279q0 100 57.5 167.5t169 111.5t277.5 69.5t383 44.5v-463q-51 -66 -115.5 -104.5t-127 -60t-119 -28t-93.5 -6.5q-131 0 -215 25.5t-132 64.5t-66.5 86 t-18.5 93zM512 1317q0 -61 49 -94t107 -33h2q59 0 108 33t49 94t-49 94t-108 33t-108.5 -33t-49.5 -94zM549 1317q0 43 34.5 67.5t84.5 24.5q49 0 83.5 -24.5t34.5 -67.5q0 -35 -28.5 -63.5t-87.5 -28.5h-2q-61 0 -90 28.5t-29 63.5z" />
<glyph unicode="&#xe6;" horiz-adv-x="2314" d="M133 276q0 -53 21.5 -106t75 -96t143.5 -71t229 -28q166 0 305.5 67t239.5 177h4q49 -76 112.5 -124t132 -74.5t136 -36t121.5 -9.5q80 0 174 16.5t175 35t135 35.5l54 16l-8 39l-51 -17q-51 -16 -130 -36.5t-174 -37t-183 -16.5q-90 0 -186.5 28t-175.5 91.5t-130 166.5 t-51 255h1096q0 115 -39 214t-111 177q-78 82 -180.5 127t-218.5 45q-117 0 -211.5 -30.5t-164 -83t-114.5 -120t-61 -141.5h-4q0 80 -15.5 148.5t-61.5 119t-133 79t-229 28.5q-121 0 -189.5 -4t-101 -10t-40.5 -10l-7 -5l11 -28l11 3t46 8t99.5 8t168.5 3q119 0 198 -21.5 t125 -61.5t65.5 -100t19.5 -136v-53q-231 -18 -405.5 -47t-290 -77t-174 -122t-58.5 -185zM174 279q0 100 57.5 167.5t169 111.5t277.5 69.5t383 44.5v-113q0 -94 18 -170t51 -137q-41 -47 -96 -90t-122.5 -77t-144.5 -54.5t-161 -20.5q-131 0 -215 25.5t-132 64.5t-66.5 86 t-18.5 93zM1102 588q0 88 34.5 176t103.5 158.5t171 113.5t238 43q111 0 202 -41t157.5 -109.5t103 -157.5t40.5 -183h-1050z" />
<glyph unicode="&#xe7;" horiz-adv-x="1378" d="M143 545q0 -150 50.5 -257.5t134.5 -177t193.5 -102.5t226.5 -33l-93 -116l27 -15q23 6 61.5 9.5t75.5 -3t63.5 -25t26.5 -54.5q0 -25 -17.5 -43.5t-43 -29.5t-58 -16.5t-63.5 -5.5q-53 0 -95 9.5t-73 25.5l-20 -28q25 -12 74 -26.5t114 -14.5q98 0 158.5 33.5t60.5 95.5 q0 41 -23.5 65.5t-57.5 36.5t-74.5 14t-73.5 -4l74 92q98 4 171.5 28t129 57.5t95 76.5t68.5 86l-36 19q-29 -47 -70 -88t-96.5 -74t-130 -51.5t-170.5 -18.5q-106 0 -208 31t-181.5 95.5t-129 165.5t-49.5 243q0 135 49.5 235.5t129 167t182 99t207.5 32.5q170 0 270 -53 t166 -141l35 20q-72 94 -181.5 151.5t-289.5 57.5q-115 0 -224.5 -35t-194.5 -105.5t-137.5 -177t-52.5 -251.5z" />
<glyph unicode="&#xe8;" horiz-adv-x="1396" d="M143 559q0 -147 44 -251.5t118 -176.5q86 -82 197.5 -119t228.5 -37q80 0 174 16.5t175 35t136 35.5l54 16l-8 39l-50 -17q-51 -16 -129.5 -36.5t-173 -37t-182.5 -16.5q-90 0 -186.5 28t-175 91.5t-130 166.5t-51.5 255h1096q0 123 -42 221t-108 170q-80 86 -182 129 t-217 43q-131 0 -233.5 -39t-180.5 -106q-84 -72 -129 -175.5t-45 -234.5zM184 588q0 100 40 189t112 156.5t172 106.5t223 39q111 0 202 -41t157.5 -109.5t103.5 -157.5t41 -183h-1051zM383 1403l326 -232h34l-284 232h-76z" />
<glyph unicode="&#xe9;" horiz-adv-x="1396" d="M143 559q0 -147 44 -251.5t118 -176.5q86 -82 197.5 -119t228.5 -37q80 0 174 16.5t175 35t136 35.5l54 16l-8 39l-50 -17q-51 -16 -129.5 -36.5t-173 -37t-182.5 -16.5q-90 0 -186.5 28t-175 91.5t-130 166.5t-51.5 255h1096q0 123 -42 221t-108 170q-80 86 -182 129 t-217 43q-131 0 -233.5 -39t-180.5 -106q-84 -72 -129 -175.5t-45 -234.5zM184 588q0 100 40 189t112 156.5t172 106.5t223 39q111 0 202 -41t157.5 -109.5t103.5 -157.5t41 -183h-1051zM653 1171h35l326 232h-76z" />
<glyph unicode="&#xea;" horiz-adv-x="1396" d="M143 559q0 -147 44 -251.5t118 -176.5q86 -82 197.5 -119t228.5 -37q80 0 174 16.5t175 35t136 35.5l54 16l-8 39l-50 -17q-51 -16 -129.5 -36.5t-173 -37t-182.5 -16.5q-90 0 -186.5 28t-175 91.5t-130 166.5t-51.5 255h1096q0 123 -42 221t-108 170q-80 86 -182 129 t-217 43q-131 0 -233.5 -39t-180.5 -106q-84 -72 -129 -175.5t-45 -234.5zM184 588q0 100 40 189t112 156.5t172 106.5t223 39q111 0 202 -41t157.5 -109.5t103.5 -157.5t41 -183h-1051zM412 1210h37l247 136h4l248 -136h37l-285 189h-4z" />
<glyph unicode="&#xeb;" horiz-adv-x="1396" d="M143 559q0 -147 44 -251.5t118 -176.5q86 -82 197.5 -119t228.5 -37q80 0 174 16.5t175 35t136 35.5l54 16l-8 39l-50 -17q-51 -16 -129.5 -36.5t-173 -37t-182.5 -16.5q-90 0 -186.5 28t-175 91.5t-130 166.5t-51.5 255h1096q0 123 -42 221t-108 170q-80 86 -182 129 t-217 43q-131 0 -233.5 -39t-180.5 -106q-84 -72 -129 -175.5t-45 -234.5zM184 588q0 100 40 189t112 156.5t172 106.5t223 39q111 0 202 -41t157.5 -109.5t103.5 -157.5t41 -183h-1051zM446 1253h37v158h-37v-158zM913 1253h37v158h-37v-158z" />
<glyph unicode="&#xec;" horiz-adv-x="573" d="M53 1403l326 -232h35l-285 232h-76zM266 0h41v1090h-41v-1090z" />
<glyph unicode="&#xed;" horiz-adv-x="573" d="M160 1171h35l325 232h-76zM266 0h41v1090h-41v-1090z" />
<glyph unicode="&#xee;" horiz-adv-x="573" d="M0 1210h37l248 136h4l248 -136h36l-284 189h-4zM266 0h41v1090h-41v-1090z" />
<glyph unicode="&#xef;" horiz-adv-x="573" d="M35 1253h37v158h-37v-158zM266 0h41v1090h-41v-1090zM502 1253h37v158h-37v-158z" />
<glyph unicode="&#xf0;" horiz-adv-x="1513" d="M143 545q0 -115 38 -217.5t114 -181t190.5 -125t270.5 -46.5q147 0 262 43t186 125q37 41 66.5 84t52.5 100.5t35 132.5t12 179q0 115 -32.5 232.5t-98.5 220.5q-47 76 -123 148.5t-178 131.5l311 96l-30 25l-320 -98q-111 49 -230.5 79.5t-242.5 38.5l-72 -28 q172 -8 290 -40t204 -67l-459 -139l33 -25l469 144q133 -72 203.5 -145.5t111.5 -133.5q47 -70 82 -157.5t47 -190.5h-4q-31 102 -90 175t-137 119t-167 67.5t-181 21.5q-129 0 -241 -38t-194.5 -111.5t-130 -179t-47.5 -240.5zM184 545q0 125 44 224t121 169t182.5 105.5 t226.5 35.5q135 0 241.5 -43t180 -113.5t111.5 -162t38 -187.5t-28.5 -196.5t-96 -182t-176 -133t-268.5 -51.5h-2q-145 0 -254 44t-179.5 119t-105.5 171t-35 201z" />
<glyph unicode="&#xf1;" horiz-adv-x="1476" d="M246 0h41v846q27 23 63.5 48.5t78.5 51t84 47t77 33.5q147 53 268 53q102 0 165.5 -25.5t102.5 -64.5q47 -47 60.5 -105.5t13.5 -117.5v-766h41v768q0 86 -21.5 143.5t-64.5 102.5q-47 47 -119.5 73.5t-173.5 26.5q-68 0 -137.5 -13.5t-142.5 -41.5q-145 -59 -291 -168 h-6l2 199h-41v-1090zM461 1311l24 -25q27 29 55.5 38t69.5 9q31 0 61.5 -6t47.5 -10l41 -12q33 -10 61.5 -13.5t50.5 -3.5q47 0 85 13.5t65 46.5l-25 24q-27 -29 -55.5 -38t-69.5 -9q-31 0 -61.5 6t-46.5 10l-41 13q-33 10 -61.5 13t-51.5 3q-47 0 -85 -13.5t-64 -45.5z" />
<glyph unicode="&#xf2;" horiz-adv-x="1513" d="M143 545q0 -115 38 -217.5t114 -181t191.5 -125t271.5 -46.5q160 0 275.5 48.5t190 128t110.5 181t36 210.5v2q0 135 -47 240.5t-130 179t-194.5 111.5t-240.5 38t-242 -38t-195.5 -111.5t-130 -179t-47.5 -240.5zM184 543q0 125 44 224t121 169t182.5 105.5t226.5 35.5 t225 -35.5t181 -105.5t121 -169t44 -224q0 -104 -34.5 -200.5t-105.5 -171.5t-178.5 -119t-250.5 -44h-2q-145 0 -254 44t-179.5 119t-105.5 171t-35 201zM442 1403l326 -232h35l-285 232h-76z" />
<glyph unicode="&#xf3;" horiz-adv-x="1513" d="M143 545q0 -115 38 -217.5t114 -181t191.5 -125t271.5 -46.5q160 0 275.5 48.5t190 128t110.5 181t36 210.5v2q0 135 -47 240.5t-130 179t-194.5 111.5t-240.5 38t-242 -38t-195.5 -111.5t-130 -179t-47.5 -240.5zM184 543q0 125 44 224t121 169t182.5 105.5t226.5 35.5 t225 -35.5t181 -105.5t121 -169t44 -224q0 -104 -34.5 -200.5t-105.5 -171.5t-178.5 -119t-250.5 -44h-2q-145 0 -254 44t-179.5 119t-105.5 171t-35 201zM713 1171h35l325 232h-76z" />
<glyph unicode="&#xf4;" horiz-adv-x="1513" d="M143 545q0 -115 38 -217.5t114 -181t191.5 -125t271.5 -46.5q160 0 275.5 48.5t190 128t110.5 181t36 210.5v2q0 135 -47 240.5t-130 179t-194.5 111.5t-240.5 38t-242 -38t-195.5 -111.5t-130 -179t-47.5 -240.5zM184 543q0 125 44 224t121 169t182.5 105.5t226.5 35.5 t225 -35.5t181 -105.5t121 -169t44 -224q0 -104 -34.5 -200.5t-105.5 -171.5t-178.5 -119t-250.5 -44h-2q-145 0 -254 44t-179.5 119t-105.5 171t-35 201zM471 1210h37l248 136h4l248 -136h36l-284 189h-4z" />
<glyph unicode="&#xf5;" horiz-adv-x="1513" d="M143 545q0 -115 38 -217.5t114 -181t191.5 -125t271.5 -46.5q160 0 275.5 48.5t190 128t110.5 181t36 210.5v2q0 135 -47 240.5t-130 179t-194.5 111.5t-240.5 38t-242 -38t-195.5 -111.5t-130 -179t-47.5 -240.5zM184 543q0 125 44 224t121 169t182.5 105.5t226.5 35.5 t225 -35.5t181 -105.5t121 -169t44 -224q0 -104 -34.5 -200.5t-105.5 -171.5t-178.5 -119t-250.5 -44h-2q-145 0 -254 44t-179.5 119t-105.5 171t-35 201zM479 1311l25 -25q27 29 55.5 38t69.5 9q31 0 61.5 -6t46.5 -10l41 -12q33 -10 61.5 -13.5t51.5 -3.5q47 0 84.5 13.5 t64.5 46.5l-24 24q-27 -29 -55.5 -38t-69.5 -9q-31 0 -61.5 6t-47.5 10l-41 13q-33 10 -61.5 13t-50.5 3q-47 0 -85 -13.5t-65 -45.5z" />
<glyph unicode="&#xf6;" horiz-adv-x="1513" d="M162 545q0 -115 38 -217.5t113.5 -181t191.5 -125t271 -46.5q160 0 275.5 48.5t190.5 128t111 181t36 210.5v2q0 135 -47.5 240.5t-130.5 179t-194.5 111.5t-240.5 38t-241.5 -38t-195.5 -111.5t-130 -179t-47 -240.5zM203 543q0 125 44 224t120.5 169t182 105.5 t226.5 35.5t225.5 -35.5t181.5 -105.5t121 -169t44 -224q0 -104 -35 -200.5t-105.5 -171.5t-178 -119t-251.5 -44h-2q-145 0 -253.5 44t-179.5 119t-105.5 171t-34.5 201zM524 1253h37v158h-37v-158zM991 1253h37v158h-37v-158z" />
<glyph unicode="&#xf7;" horiz-adv-x="1638" d="M297 504h1049v33h-1049v-33zM782 809q0 -16 10.5 -26.5t26.5 -10.5t26.5 10.5t10.5 26.5t-10 26.5t-25 10.5h-2q-16 0 -26.5 -10.5t-10.5 -26.5zM784 231q0 -16 10.5 -26t26.5 -10t26.5 10t10.5 26t-10 26.5t-25 10.5h-2q-16 0 -26.5 -10t-10.5 -27z" />
<glyph unicode="&#xf8;" horiz-adv-x="1513" d="M74 -2l22 -27l205 174q23 -25 59.5 -54.5t91 -56t129 -44t173.5 -17.5q162 0 277.5 48.5t191 128t111.5 182t36 211.5q0 100 -32.5 195.5t-104.5 181.5l207 167l-23 27l-205 -174q-63 68 -170.5 120t-281.5 52q-131 0 -244 -38t-195.5 -111.5t-130 -179t-47.5 -240.5 q0 -100 33 -195.5t105 -181.5zM184 543q0 125 44 224t121 169t183.5 105.5t229.5 35.5q72 0 139.5 -11t118.5 -32q66 -27 105.5 -54t68.5 -56l-891 -744q-16 20 -36.5 52t-39 77t-31 103.5t-12.5 130.5zM319 162l891 743q16 -20 37 -53t39.5 -77t30.5 -102t12 -130 q0 -104 -34.5 -200.5t-105.5 -171.5t-179.5 -119t-255.5 -44q-74 0 -141.5 11.5t-118.5 31.5q-66 27 -106 54.5t-69 56.5z" />
<glyph unicode="&#xf9;" horiz-adv-x="1476" d="M236 322q0 -86 21.5 -143.5t64.5 -102.5q47 -47 119.5 -74t172.5 -27q135 0 281 58q72 29 138.5 68.5t152.5 97.5h6l-2 -199h41v1090h-41v-846q-80 -61 -160 -106.5t-141 -69.5q-72 -29 -140.5 -43.5t-130.5 -14.5q-106 0 -168.5 28t-97.5 60q-49 47 -62.5 104.5 t-13.5 121.5v766h-40v-768zM424 1403l326 -232h34l-284 232h-76z" />
<glyph unicode="&#xfa;" horiz-adv-x="1476" d="M236 322q0 -86 21.5 -143.5t64.5 -102.5q47 -47 119.5 -74t172.5 -27q135 0 281 58q72 29 138.5 68.5t152.5 97.5h6l-2 -199h41v1090h-41v-846q-80 -61 -160 -106.5t-141 -69.5q-72 -29 -140.5 -43.5t-130.5 -14.5q-106 0 -168.5 28t-97.5 60q-49 47 -62.5 104.5 t-13.5 121.5v766h-40v-768zM694 1171h35l326 232h-76z" />
<glyph unicode="&#xfb;" horiz-adv-x="1476" d="M236 322q0 -86 21.5 -143.5t64.5 -102.5q47 -47 119.5 -74t172.5 -27q135 0 281 58q72 29 138.5 68.5t152.5 97.5h6l-2 -199h41v1090h-41v-846q-80 -61 -160 -106.5t-141 -69.5q-72 -29 -140.5 -43.5t-130.5 -14.5q-106 0 -168.5 28t-97.5 60q-49 47 -62.5 104.5 t-13.5 121.5v766h-40v-768zM453 1210h36l248 136h4l248 -136h37l-285 189h-4z" />
<glyph unicode="&#xfc;" horiz-adv-x="1476" d="M236 322q0 -86 21.5 -143.5t64.5 -102.5q47 -47 119.5 -74t172.5 -27q135 0 281 58q72 29 138.5 68.5t152.5 97.5h6l-2 -199h41v1090h-41v-846q-80 -61 -160 -106.5t-141 -69.5q-72 -29 -140.5 -43.5t-130.5 -14.5q-106 0 -168.5 28t-97.5 60q-49 47 -62.5 104.5 t-13.5 121.5v766h-40v-768zM487 1253h37v158h-37v-158zM954 1253h37v158h-37v-158z" />
<glyph unicode="&#xfd;" horiz-adv-x="1353" d="M16 -465q23 -14 49.5 -26.5t63.5 -22.5q31 -10 69 -15.5t89 -5.5q102 0 171.5 30t119.5 75q51 45 80.5 97t50.5 97l573 1326h-43l-215 -502q-53 -129 -110.5 -261t-114.5 -266h-4q-80 129 -163 260.5t-165 262.5l-317 506h-48l676 -1074l-106 -241q-47 -109 -119 -178 q-53 -51 -119.5 -74t-146.5 -23q-41 0 -78 5.5t-68 15.5q-35 10 -61.5 24.5t-42.5 24.5zM715 1171h35l325 232h-76z" />
<glyph unicode="&#xfe;" horiz-adv-x="1513" d="M246 -508h41v678h4q47 -43 105.5 -82t109.5 -61q82 -35 149.5 -43.5t116.5 -8.5q147 0 258 49.5t178 122.5q82 88 117 193t35 209q0 123 -40 220t-108 169q-166 176 -440 176q-84 0 -151.5 -14.5t-126.5 -40.5q-70 -31 -120 -68t-85 -73h-2v571h-41v-1997zM287 219v651 q47 51 104.5 91t116.5 67q68 31 133.5 41t130.5 10q135 0 237.5 -44t172.5 -120q70 -74 103.5 -169t33.5 -197q0 -123 -39 -216t-100 -159q-82 -88 -187.5 -126t-220.5 -38q-78 0 -142.5 13.5t-113.5 35.5q-47 23 -104.5 59t-124.5 101z" />
<glyph unicode="&#xff;" horiz-adv-x="1353" d="M16 -465q23 -14 49.5 -26.5t63.5 -22.5q31 -10 69 -15.5t89 -5.5q102 0 171.5 30t119.5 75q51 45 80.5 97t50.5 97l573 1326h-43l-215 -502q-53 -129 -110.5 -261t-114.5 -266h-4q-80 129 -163 260.5t-165 262.5l-317 506h-48l676 -1074l-106 -241q-47 -109 -119 -178 q-53 -51 -119.5 -74t-146.5 -23q-41 0 -78 5.5t-68 15.5q-35 10 -61.5 24.5t-42.5 24.5zM473 1253h37v158h-37v-158zM940 1253h37v158h-37v-158z" />
<glyph unicode="&#x152;" horiz-adv-x="2521" d="M164 725q0 -176 60.5 -315.5t172 -236.5t271 -149.5t356.5 -52.5q166 0 246 11.5t104 17.5h963v39h-936v700h737v39h-737v635h907v39h-934q-31 8 -111.5 18.5t-238.5 10.5q-197 0 -356.5 -52.5t-271 -149.5t-172 -237.5t-60.5 -316.5zM209 725q0 172 58.5 305t166 225.5 t258 140.5t334.5 48q154 0 242 -12.5t88 -28.5v-1354q0 -16 -88 -28.5t-242 -12.5q-184 0 -334.5 48t-258 140.5t-166 225.5t-58.5 303z" />
<glyph unicode="&#x153;" horiz-adv-x="2523" d="M143 545q0 -125 41 -229.5t117 -180.5t182.5 -118t237.5 -42q133 0 232.5 35t169 92.5t109.5 131t56 153.5h4q31 -125 94.5 -205t143.5 -126t167 -63.5t161 -17.5q80 0 174 16.5t175 35t135 35.5l54 16l-8 39l-50 -17q-50 -16 -129 -36.5t-173 -37t-183 -16.5 q-86 0 -182 28t-177 91.5t-133 166.5t-52 255h1097q0 123 -42 221t-107 170q-80 86 -182.5 129t-216.5 43q-129 0 -228.5 -37t-170 -96t-113.5 -134t-56 -149h-4q-10 43 -39.5 114t-92 137.5t-168 115.5t-265.5 49q-123 0 -228.5 -40t-183.5 -113.5t-122 -179t-44 -236.5z M184 543v2q0 141 49.5 242.5t126 166t173 95t190.5 30.5q119 0 219 -37.5t173 -106.5t113 -168t40 -222q0 -135 -41 -235.5t-114 -167t-172 -99.5t-218 -33q-121 0 -220.5 40t-170 110.5t-109.5 168t-39 214.5zM1309 586q0 82 33.5 169t101 158.5t170 117.5t241.5 46 q111 0 203 -41t157.5 -109.5t103.5 -157.5t42 -183h-1052z" />
<glyph unicode="&#x178;" horiz-adv-x="1433" d="M72 1452l622 -827v-625h45v625l623 827h-51l-295 -393q-74 -98 -147.5 -196.5t-149.5 -198.5h-4q-74 98 -148.5 195t-148.5 198l-295 395h-51zM461 1489h37v147h-37v-147zM936 1489h37v147h-37v-147z" />
<glyph unicode="&#x2c6;" d="M225 1210h37l248 136h4l248 -136h37l-285 189h-4z" />
<glyph unicode="&#x2dc;" d="M233 1311l25 -25q27 29 55.5 38t69.5 9q31 0 61.5 -6t47.5 -10l40 -12q33 -10 62 -13.5t51 -3.5q47 0 85 13.5t65 46.5l-25 24q-27 -29 -55.5 -38t-69.5 -9q-31 0 -61.5 6t-46.5 10l-41 13q-33 10 -61.5 13t-51.5 3q-47 0 -85 -13.5t-65 -45.5z" />
<glyph unicode="&#x2000;" horiz-adv-x="859" />
<glyph unicode="&#x2001;" horiz-adv-x="1718" />
<glyph unicode="&#x2002;" horiz-adv-x="859" />
<glyph unicode="&#x2003;" horiz-adv-x="1718" />
<glyph unicode="&#x2004;" horiz-adv-x="572" />
<glyph unicode="&#x2005;" horiz-adv-x="429" />
<glyph unicode="&#x2006;" horiz-adv-x="286" />
<glyph unicode="&#x2007;" horiz-adv-x="286" />
<glyph unicode="&#x2008;" horiz-adv-x="214" />
<glyph unicode="&#x2009;" horiz-adv-x="343" />
<glyph unicode="&#x200a;" horiz-adv-x="95" />
<glyph unicode="&#x2010;" horiz-adv-x="817" d="M31 651h579v37h-579v-37z" />
<glyph unicode="&#x2011;" horiz-adv-x="817" d="M31 651h579v37h-579v-37z" />
<glyph unicode="&#x2012;" horiz-adv-x="817" d="M31 651h579v37h-579v-37z" />
<glyph unicode="&#x2013;" horiz-adv-x="1228" d="M61 496h1106v32h-1106v-32z" />
<glyph unicode="&#x2014;" horiz-adv-x="2457" d="M61 496h2335v32h-2335v-32z" />
<glyph unicode="&#x2018;" horiz-adv-x="471" d="M154 1452l88 -322h24l-63 322h-49z" />
<glyph unicode="&#x2019;" horiz-adv-x="471" d="M205 1130h24l88 322h-49z" />
<glyph unicode="&#x201a;" horiz-adv-x="1206" d="M369 -512h41v1642q0 98 38.5 165t104.5 106q61 37 138 51t163 14q152 0 264 -41q100 -37 150 -88l22 35q-39 31 -79 51.5t-81 36.5q-61 23 -129.5 32t-146.5 9q-205 0 -328 -74q-158 -94 -157 -294v-1645z" />
<glyph unicode="&#x201c;" horiz-adv-x="722" d="M154 1452l88 -322h24l-63 322h-49zM406 1452l88 -322h24l-63 322h-49z" />
<glyph unicode="&#x201d;" horiz-adv-x="722" d="M205 1130h24l88 322h-49zM457 1130h24l88 322h-49z" />
<glyph unicode="&#x201e;" horiz-adv-x="722" d="M205 -164h24l88 322h-49zM457 -164h24l88 322h-49z" />
<glyph unicode="&#x2022;" horiz-adv-x="671" d="M219 698q0 -53 37 -90t90 -37t89 37t36 90t-36 90t-89 37t-90 -36.5t-37 -90.5z" />
<glyph unicode="&#x2026;" horiz-adv-x="2457" d="M389 0h41v164h-41v-164zM1208 0h41v164h-41v-164zM2028 0h40v164h-40v-164z" />
<glyph unicode="&#x202f;" horiz-adv-x="343" />
<glyph unicode="&#x2039;" horiz-adv-x="782" d="M170 508l397 -383v45l-338 338v4l338 338v45l-397 -383v-4z" />
<glyph unicode="&#x203a;" horiz-adv-x="782" d="M215 125l397 383v4l-397 383v-45l338 -338v-4l-338 -338v-45z" />
<glyph unicode="&#x205f;" horiz-adv-x="429" />
<glyph unicode="&#x20ac;" horiz-adv-x="1728" d="M49 596h207q20 -129 76.5 -236.5t148.5 -193.5q88 -82 230.5 -138.5t322.5 -56.5q121 0 219.5 33t175 82t134 108.5t98.5 114.5l-35 25q-33 -45 -85 -101.5t-126 -106.5t-169 -84t-212 -34q-129 0 -250.5 36t-222 108.5t-170 183t-92.5 260.5h1235v33h-1239q-2 23 -3 47 t-1 49q0 35 3 68.5t7 64.5h1233v33h-1229q29 147 102.5 251.5t175 172t221.5 98.5t240 31q100 0 182.5 -23.5t148 -63.5t115.5 -92.5t87 -109.5l37 23q-39 61 -94.5 116.5t-126 96.5t-157.5 65.5t-192 24.5q-176 0 -321 -53.5t-252 -151.5q-80 -74 -134 -171t-77 -214h-211 v-33h207q-4 -33 -7 -64.5t-3 -66.5q0 -49 6 -98h-203v-33z" />
<glyph unicode="&#x2122;" horiz-adv-x="2396" d="M70 1421h360v-698h37v698h360v31h-757v-31zM965 723h32v350v357h2q61 -92 122 -179.5t122 -175.5l246 -352h41l244 348q61 88 122.5 176t122.5 183h4q-2 -92 -2 -181v-176v-350h37v729h-57l-244 -348q-121 -172 -246 -350h-4q-59 88 -120.5 175t-122.5 175l-244 348h-55 v-729z" />
<glyph unicode="&#x25fc;" horiz-adv-x="1085" d="M0 0v1085h1085v-1085h-1085z" />
</font>
</defs>
</svg>
